<?xml version="1.0" encoding="UTF-8" standalone="no"?>
<!-- Created with Inkscape (http://www.inkscape.org/) -->

<svg
   xmlns:dc="http://purl.org/dc/elements/1.1/"
   xmlns:cc="http://creativecommons.org/ns#"
   xmlns:rdf="http://www.w3.org/1999/02/22-rdf-syntax-ns#"
   xmlns:svg="http://www.w3.org/2000/svg"
   xmlns="http://www.w3.org/2000/svg"
   xmlns:sodipodi="http://sodipodi.sourceforge.net/DTD/sodipodi-0.dtd"
   xmlns:inkscape="http://www.inkscape.org/namespaces/inkscape"
   width="1020.3"
   height="261.79999"
   id="svg4230"
   version="1.1"
   inkscape:version="0.48.3.1 r9886"
   sodipodi:docname="logo3.svg">
  <defs
     id="defs4232" />
  <sodipodi:namedview
     id="base"
     pagecolor="#ffffff"
     bordercolor="#666666"
     borderopacity="1.0"
     inkscape:pageopacity="0.0"
     inkscape:pageshadow="2"
     inkscape:zoom="0.7"
     inkscape:cx="309.48701"
     inkscape:cy="128.06486"
     inkscape:document-units="px"
     inkscape:current-layer="layer1"
     showgrid="false"
     fit-margin-top="0"
     fit-margin-left="0"
     fit-margin-right="0"
     fit-margin-bottom="0"
     inkscape:window-width="1316"
     inkscape:window-height="744"
     inkscape:window-x="50"
     inkscape:window-y="24"
     inkscape:window-maximized="1" />
  <metadata
     id="metadata4235">
    <rdf:RDF>
      <cc:Work
         rdf:about="">
        <dc:format>image/svg+xml</dc:format>
        <dc:type
           rdf:resource="http://purl.org/dc/dcmitype/StillImage" />
        <dc:title />
      </cc:Work>
    </rdf:RDF>
  </metadata>
  <g
     inkscape:label="Layer 1"
     inkscape:groupmode="layer"
     id="layer1"
     transform="translate(990.02159,-398.62705)">
    <path
       style="fill:#cccccc;fill-opacity:1;stroke:#1a1a1a;stroke-width:0;stroke-linecap:round;stroke-linejoin:miter;stroke-miterlimit:4;stroke-opacity:1;stroke-dasharray:none;stroke-dashoffset:0"
       d="m -895.69837,425.74147 c -13.40725,0 -25.6976,4.39209 -35.30953,11.71511 7.7356,-3.77585 16.55139,-5.91733 25.8989,-5.91733 30.7611,0 55.69482,23.12806 55.69482,51.67201 0,16.09017 -7.93448,30.47799 -20.35871,39.95689 17.70493,-8.65433 29.76934,-25.89553 29.76934,-45.75468 0,-28.54394 -24.93372,-51.672 -55.69482,-51.672 z"
       id="path6351"
       inkscape:connector-curvature="0" />
    <path
       style="fill:#b3b3b3;fill-opacity:1;stroke:#000000;stroke-width:0;stroke-linecap:butt;stroke-linejoin:miter;stroke-miterlimit:4;stroke-opacity:1;stroke-dasharray:none"
       d="m -928.87269,572.61686 38.64178,11.59254 -1.93208,24.15112 -12.5586,6.76231 -22.21902,-11.59253 z"
       id="path6349"
       inkscape:connector-curvature="0" />
    <path
       inkscape:connector-curvature="0"
       id="path4205"
       d="m -899.37539,406.03398 c -8.75085,0.8164 -17.54311,1.84831 -26.25705,2.86908 -5.50438,1.9694 -8.97138,7.0241 -14.27168,9.44123 -9.78101,6.51348 -15.3445,17.30423 -22.86732,26.06133 -7.82502,10.68843 -9.65392,24.48025 -12.381,37.28635 -2.129,12.21683 -4.77575,25.4419 1.00587,37.40121 4.32637,9.53542 9.68194,18.6542 14.06865,28.16341 3.05396,4.97789 7.84683,8.57984 11.28084,13.24478 3.71785,3.25836 7.49059,6.64826 11.2158,9.7781 0.53641,9.42408 2.49719,18.74259 5.16192,27.8289 -0.84655,1.22813 1.51474,4.30954 2.42259,6.26362 0.0535,4.18263 2.33537,3.62374 5.33434,4.92522 5.95539,5.78105 14.32457,7.97153 22.2962,7.02849 8.43727,0.31292 17.07068,-4.56985 19.8036,-12.52742 1.18356,-7.58835 0.58145,-15.52278 3.03273,-22.88141 0.3483,-7.33334 4.38011,-13.26287 9.33852,-18.30643 7.03461,-9.62939 17.76508,-15.91598 25.0251,-25.37114 5.6441,-8.60025 6.34012,-19.58217 9.64837,-29.23361 3.14395,-12.31077 5.44853,-24.92871 4.27396,-37.85149 0.0564,-11.34128 0.73045,-23.55902 -5.72941,-33.73337 -5.00765,-8.24229 -11.92932,-15.28192 -19.11494,-21.54091 -6.10974,-3.1565 -12.89963,-4.40023 -19.36005,-5.92907 -4.3937,-2.1877 -9.62657,-1.95618 -14.35833,-2.7735 -3.18928,-0.051 -6.3844,-0.24266 -9.56861,-0.14383 z"
       style="fill:#f9f9f9;fill-opacity:1;stroke:#000000;stroke-width:3.30811524;stroke-linecap:square;stroke-linejoin:miter;stroke-miterlimit:4;stroke-opacity:0;stroke-dasharray:none;stroke-dashoffset:0"
       sodipodi:nodetypes="ccccccccccccccccccccccccc" />
    <path
       sodipodi:type="arc"
       style="fill:#eeef68;fill-opacity:1;stroke:#000000;stroke-width:2;stroke-linecap:square;stroke-linejoin:miter;stroke-miterlimit:4;stroke-opacity:0;stroke-dasharray:none;stroke-dashoffset:0"
       id="path3117"
       sodipodi:cx="459.11432"
       sodipodi:cy="40.955818"
       sodipodi:rx="20.708128"
       sodipodi:ry="17.172594"
       d="m 479.82245,40.955818 c 0,9.484162 -9.27135,17.172594 -20.70813,17.172594 -11.43678,0 -20.70813,-7.688432 -20.70813,-17.172594 0,-9.484162 9.27135,-17.172594 20.70813,-17.172594 11.43678,0 20.70813,7.688432 20.70813,17.172594 z"
       transform="matrix(1.9051954,0,0,1.9051954,-1778.6263,408.62671)" />
    <path
       style="fill:#1a1a1a;fill-opacity:1;stroke:#000000;stroke-width:3.30811524;stroke-linecap:square;stroke-linejoin:miter;stroke-miterlimit:4;stroke-opacity:0;stroke-dasharray:none;stroke-dashoffset:0"
       d="m -899.37539,406.03398 c -8.75085,0.8164 -17.54311,1.84831 -26.25705,2.86908 -5.50438,1.9694 -8.97138,7.0241 -14.27168,9.44123 -9.78101,6.51348 -15.3445,17.30423 -22.86732,26.06133 -7.82502,10.68843 -9.65392,24.48025 -12.381,37.28635 -2.129,12.21683 -4.77575,25.4419 1.00587,37.40121 4.32637,9.53542 9.68194,18.6542 14.06865,28.16341 3.05396,4.97789 7.84683,8.57984 11.28084,13.24478 3.71785,3.25836 7.49059,6.64826 11.2158,9.7781 0.53641,9.42408 2.49719,18.74259 5.16192,27.8289 -0.84655,1.22813 1.51474,4.30954 2.42259,6.26362 0.0535,4.18263 2.33537,3.62374 5.33434,4.92522 5.95539,5.78105 14.32457,7.97153 22.2962,7.02849 8.43727,0.31292 17.07068,-4.56985 19.8036,-12.52742 1.18356,-7.58835 0.58145,-15.52278 3.03273,-22.88141 0.3483,-7.33334 4.38011,-13.26287 9.33852,-18.30643 7.03461,-9.62939 17.76508,-15.91598 25.0251,-25.37114 5.6441,-8.60025 6.34012,-19.58217 9.64837,-29.23361 3.14395,-12.31077 5.44853,-24.92871 4.27396,-37.85149 0.0564,-11.34128 0.73045,-23.55902 -5.72941,-33.73337 -5.00765,-8.24229 -11.92932,-15.28192 -19.11494,-21.54091 -6.10974,-3.1565 -12.89963,-4.40023 -19.36005,-5.92907 -4.3937,-2.1877 -9.62657,-1.95618 -14.35833,-2.7735 -3.18928,-0.051 -6.3844,-0.24266 -9.56861,-0.14383 z m 1.01984,9.49113 c 6.93783,0.0859 14.17872,0.116 20.79551,2.31925 5.64085,2.82035 13.40916,1.13979 17.60461,6.88559 9.03985,8.64155 16.88792,19.93852 16.55445,32.65761 -0.2037,14.13146 1.56963,28.52602 -2.27503,42.14803 -2.66406,10.70167 -5.17148,21.57106 -8.73153,31.918 -5.93167,10.87752 -17.74241,16.43356 -25.01611,26.28659 -5.4885,6.09843 -11.54278,12.57711 -11.97963,21.33744 -1.6689,7.05518 -2.83248,14.36045 -2.84663,21.78012 -0.22761,5.07231 -5.00833,8.35225 -9.06395,10.23231 -4.44601,-0.61664 -4.23954,-1.88637 -8.44779,-3.84906 -2.48839,-2.33565 -7.31597,-3.67797 -6.60474,-7.95757 -0.14058,-8.81836 -4.41081,-16.9312 -5.02516,-25.65674 -0.13475,-6.55732 -3.97511,-13.00769 -10.22275,-15.516 -8.57278,-4.36383 -15.56226,-12.05142 -18.73853,-21.08643 -6.27978,-12.66828 -15.58588,-25.66576 -13.06259,-40.23663 2.16027,-15.43807 4.38413,-31.29581 10.85575,-45.42473 5.22914,-8.2467 11.68097,-15.71321 17.67614,-23.42957 0.33357,2.32366 2.9522,-2.72501 4.47086,-3.63395 3.9513,-4.21953 9.18102,-7.41942 15.29793,-6.74223 6.31229,-0.5308 12.47549,-1.69726 18.75919,-2.03203 z"
       id="path3061"
       inkscape:connector-curvature="0" />
    <path
       style="fill:#1a1a1a;fill-opacity:1;stroke:#000000;stroke-width:4.17435789;stroke-linecap:square;stroke-linejoin:miter;stroke-miterlimit:4;stroke-opacity:0;stroke-dasharray:none;stroke-dashoffset:0"
       id="path3084"
       d="m -926.80146,570.89496 c 0.34141,0.49949 0.92755,0.80155 1.44301,1.09015 1.03131,0.58695 2.12058,1.04235 3.20784,1.50286 1.20594,0.49763 2.41752,0.97994 3.63025,1.45947 1.18241,0.47884 2.35736,0.9767 3.53433,1.46969 1.19541,0.50482 2.39189,1.01034 3.61456,1.43859 1.30234,0.51016 2.63815,0.91523 3.9664,1.3414 1.40113,0.43499 2.81287,0.83146 4.21113,1.27666 1.26963,0.39299 2.54529,0.76141 3.81683,1.14698 1.14435,0.3292 2.29301,0.63961 3.43889,0.96277 1.04948,0.31112 2.11331,0.5568 3.1823,0.77347 1.11269,0.21808 2.23113,0.38999 3.35234,0.53777 1.16481,0.116 2.32944,0.16936 3.49512,0.17863 3.60595,0.0232 9.90199,0.0232 -6.27041,0 0.52876,-0.0232 0.26864,0 0.7819,-0.0301 0,0 9.34168,1.41516 9.34168,1.41516 l 0,0 c -0.52302,0.0372 -0.25735,0.0232 -0.79654,0.0534 -4.07599,0 -8.15371,0.0696 -12.23334,0 -1.17276,-0.0418 -2.34761,-0.12296 -3.51482,-0.28814 -1.12857,-0.16935 -2.25495,-0.35913 -3.37261,-0.6041 -1.07043,-0.24314 -2.13263,-0.52409 -3.18795,-0.83472 -1.14368,-0.32434 -2.29281,-0.62779 -3.42875,-0.98297 -1.2658,-0.38627 -2.53773,-0.75003 -3.79847,-1.15509 -1.40304,-0.42478 -2.8078,-0.84377 -4.20615,-1.28548 -1.34069,-0.42711 -2.67554,-0.87463 -3.99194,-1.37968 -1.21875,-0.47002 -2.42574,-0.97205 -3.62958,-1.48151 -1.17103,-0.49693 -2.34904,-0.97577 -3.52773,-1.45205 -1.2132,-0.48905 -2.43062,-0.96649 -3.63311,-1.48337 -1.11863,-0.48487 -2.22683,-1.00199 -3.27239,-1.6402 -0.58365,-0.39138 -1.12054,-0.82729 -1.56438,-1.37596 0,0 9.41159,-0.65678 9.41159,-0.65678 z"
       inkscape:connector-curvature="0" />
    <path
       style="fill:#1a1a1a;fill-opacity:1;stroke:#000000;stroke-width:4.17435789;stroke-linecap:square;stroke-linejoin:miter;stroke-miterlimit:4;stroke-opacity:0;stroke-dasharray:none;stroke-dashoffset:0"
       id="path3086"
       d="m -925.89533,581.01874 c 0.17902,0.56815 0.62276,0.98412 1.08037,1.34626 1.0117,0.68508 2.09485,1.2479 3.17656,1.80538 1.23989,0.58254 2.46476,1.2001 3.71422,1.76083 1.22095,0.51457 2.43004,1.05697 3.63761,1.604 1.2747,0.52547 2.56403,1.00873 3.87497,1.42423 1.43145,0.44844 2.87695,0.83541 4.33067,1.19059 1.44857,0.3466 2.89713,0.69018 4.35229,1.00268 1.28742,0.25565 2.5691,0.53962 3.85212,0.81987 1.17514,0.25821 2.35994,0.4561 3.54494,0.64703 1.09739,0.17168 2.19737,0.32155 3.29859,0.45494 0.98407,0.12295 1.96957,0.22272 2.95537,0.31946 0.84587,0.0765 1.69472,0.0696 2.54136,0.0882 0.6681,0.0232 1.33543,0.0232 2.00324,0.0348 0.42757,0 0.85592,0.0232 1.28359,0.0232 0,0 -9.2579,1.45971 -9.2579,1.45971 l 0,0 c -0.4228,0 -0.84636,-0.0232 -1.26934,-0.0255 -0.66141,-0.0232 -1.32223,-0.0255 -1.98335,-0.0418 -0.84578,-0.0255 -1.69176,-0.0534 -2.53524,-0.16238 -0.98206,-0.10439 -1.96346,-0.21576 -2.9436,-0.34522 -1.09979,-0.14616 -2.19862,-0.30647 -3.29391,-0.49368 -1.18595,-0.20647 -2.37028,-0.42456 -3.5458,-0.69575 -1.27442,-0.2835 -2.55342,-0.53986 -3.82793,-0.82312 -1.45258,-0.32735 -2.90085,-0.67626 -4.34798,-1.03121 -1.46137,-0.37653 -2.91481,-0.78763 -4.35228,-1.2588 -1.31993,-0.45518 -2.62858,-0.95095 -3.90653,-1.52328 -1.207,-0.54819 -2.42948,-1.05836 -3.63475,-1.61096 -1.24496,-0.59066 -2.48982,-1.18272 -3.71814,-1.80933 -1.13057,-0.60249 -2.28592,-1.2022 -3.26311,-2.04805 -0.48955,-0.50111 -0.89255,-1.04304 -1.20278,-1.6692 0,0 9.43674,-0.4387 9.43674,-0.4387 z"
       inkscape:connector-curvature="0" />
    <path
       style="fill:#1a1a1a;fill-opacity:1;stroke:#000000;stroke-width:4.17435789;stroke-linecap:square;stroke-linejoin:miter;stroke-miterlimit:4;stroke-opacity:0;stroke-dasharray:none;stroke-dashoffset:0"
       id="path3090"
       d="m -922.69266,595.0175 c 0.49174,0.31784 1.05933,0.48719 1.60922,0.66142 1.11346,0.34544 2.24672,0.60783 3.36841,0.91893 1.18423,0.31574 2.36253,0.66164 3.5218,1.06903 1.08477,0.37327 2.11991,0.87416 3.17054,1.33648 0.96207,0.44288 1.9119,0.91273 2.85934,1.38755 0.89666,0.45454 1.8377,0.79787 2.78294,1.12245 1.00788,0.31081 2.0238,0.589 3.04306,0.85391 1.09051,0.26682 2.18867,0.4905 3.29132,0.68607 1.03304,0.17396 2.0655,0.34725 3.09566,0.54282 0.91474,0.16937 1.83024,0.33759 2.74755,0.48926 0.73762,0.12528 1.47745,0.23392 2.21688,0.34457 0.60881,0.088 1.21857,0.16009 1.82852,0.23593 0.53526,0.088 1.07023,0.0392 1.60597,0.0325 -15.78078,-0.0296 -11.33257,0.0229 -7.97928,0 0.30928,0 0.61856,0 0.92784,0 0,0 9.38739,1.47113 9.38739,1.47113 l 0,0 c -0.3112,0 -0.62258,0 -0.93387,0 -3.55058,0.0258 -7.09916,0.0909 -10.65405,0.023 -0.54272,0 -1.08047,-0.065 -1.62003,-0.15082 -0.60766,-0.0784 -1.21493,-0.16707 -1.82077,-0.26242 -0.7338,-0.116 -1.46721,-0.2343 -2.1989,-0.3658 -0.90986,-0.16477 -1.81933,-0.33203 -2.72804,-0.5037 -1.0272,-0.18562 -2.05871,-0.34332 -3.08371,-0.54606 -1.1081,-0.21814 -2.21258,-0.46268 -3.30614,-0.75685 -1.03093,-0.28164 -2.06416,-0.56299 -3.07042,-0.93424 -0.95222,-0.3614 -1.89115,-0.7579 -2.79689,-1.23301 -0.94094,-0.46611 -1.88695,-0.92171 -2.84615,-1.34652 -1.03036,-0.46258 -2.07047,-0.90201 -3.14367,-1.24629 -1.16099,-0.36745 -2.32868,-0.70916 -3.50593,-1.01238 -1.1475,-0.29649 -2.29549,-0.60109 -3.41794,-0.99456 -0.6176,-0.24824 -1.23138,-0.51154 -1.74378,-0.95536 0,0 9.3938,-0.84678 9.3938,-0.84678 z"
       inkscape:connector-curvature="0" />
    <path
       style="fill:#1a1a1a;fill-opacity:1;stroke:#000000;stroke-width:3.51713276;stroke-linecap:square;stroke-linejoin:miter;stroke-miterlimit:4;stroke-opacity:0;stroke-dasharray:none;stroke-dashoffset:0"
       id="path3115"
       d="m -917.44697,551.1634 c 0.01,-0.33269 0.01,-0.66557 0.01,-0.99865 0.01,-0.52796 0.01,-1.05611 0.01,-1.58427 0,-0.7895 0.01,-1.57919 0.01,-2.36868 0,-1.00236 0.0153,-2.00473 -0.01,-3.0065 -0.0258,-1.08739 -0.10299,-2.17302 -0.19461,-3.2565 -0.0937,-1.27621 -0.28403,-2.54304 -0.5212,-3.79971 -0.24798,-1.26781 -0.61387,-2.50669 -0.94065,-3.75514 -0.2782,-1.29106 -0.63492,-2.55693 -1.08286,-3.79875 -0.48553,-1.28929 -1.07693,-2.53737 -1.67216,-3.77899 -0.66092,-1.31314 -1.27785,-2.64623 -1.88331,-3.98578 -0.6045,-1.40268 -1.24295,-2.79012 -1.83941,-4.19651 -0.5674,-1.31921 -1.1345,-2.63843 -1.64031,-3.98268 -0.54415,-1.45486 -1.02471,-2.93182 -1.50594,-4.40839 -0.48027,-1.47324 -0.88652,-2.96877 -1.31611,-4.45707 -0.46889,-1.55416 -0.73255,-3.15447 -0.98292,-4.75496 -0.24951,-1.51 -0.40721,-3.03092 -0.53564,-4.55539 -0.13839,-1.53267 -0.17731,-3.07178 -0.21891,-4.60934 -0.0296,-1.42965 0.01,-2.85951 0.12681,-4.28408 0.11505,-1.13645 0.30871,-2.26294 0.59704,-3.36793 0.21326,-0.85809 0.55716,-1.67183 1.02835,-2.41832 0.46526,-0.73262 1.15869,-1.24358 1.86246,-1.72677 0.6703,-0.44703 1.38095,-0.82664 2.10241,-1.18317 0.64581,-0.31608 1.31659,-0.5733 2.00151,-0.78969 1.84009,-0.47558 3.84208,-0.49298 5.70349,-0.1988 0.55554,0.0548 1.02682,0.29594 1.47056,0.61788 0.47731,0.41674 0.81996,0.95917 1.14655,1.49611 0.31875,0.51155 0.56806,1.0616 0.80973,1.61281 0.21116,0.5051 0.39774,1.02055 0.56797,1.54088 0.14794,0.44977 0.2803,0.90423 0.39841,1.36261 0.0803,0.3798 0.19346,0.74767 0.32965,1.11086 0.10768,0.32212 0.22846,0.64328 0.39066,0.94254 0.1402,0.26387 0.29331,0.51702 0.50772,0.72674 0.19911,0.19801 0.43609,0.35088 0.67546,0.49474 0.19671,0.13487 0.42805,0.15051 0.657,0.11533 -1.26055,0 -2.52109,0 -3.78164,-0.0196 0.27858,0 0.552,-0.0234 0.81977,-0.0997 0.30058,-0.11337 0.5367,-0.31567 0.75608,-0.5434 0.32649,-0.36944 0.54951,-0.81237 0.77569,-1.2465 0.27944,-0.54575 0.56165,-1.08994 0.83708,-1.63763 0.28144,-0.57253 0.54865,-1.1519 0.86299,-1.70762 0.29953,-0.52209 0.60211,-1.03989 0.9748,-1.51371 0.41218,-0.46248 0.89493,-0.85458 1.39883,-1.21209 0.52474,-0.35478 1.10217,-0.62101 1.6755,-0.88626 0.49815,-0.2322 1.01037,-0.43042 1.52793,-0.61456 0.42777,-0.15441 0.86013,-0.29476 1.29526,-0.42611 1.64691,-0.34167 3.38935,-0.30083 5.04859,-0.086 0.37709,0.0802 0.66839,0.30591 0.91665,0.58935 0.31607,0.38077 0.48266,0.84656 0.63759,1.30944 0.1819,0.57506 0.31703,1.16284 0.44651,1.75159 0.11782,0.55514 0.21585,1.11378 0.31569,1.67242 0.0861,0.49141 0.1555,0.98497 0.22072,1.4795 0.0583,0.45857 0.14604,0.915 0.25668,1.3638 0.0967,0.431 0.24903,0.8446 0.40147,1.25803 0.1226,0.32994 0.28021,0.65071 0.48563,0.93707 0.20686,0.25782 0.42767,0.57975 0.75866,0.66576 -0.1949,0.12119 1.16788,0.0685 0.80141,0.0664 -3.68677,-0.0196 -4.8644,0.0333 -3.36028,-0.0215 0.67499,-0.0429 1.34251,-0.17398 1.99865,-0.33328 0.66465,-0.17788 1.31324,-0.40892 1.95102,-0.66537 0.64973,-0.24453 1.24496,-0.59658 1.83043,-0.96444 0.6022,-0.39564 1.1387,-0.88255 1.67301,-1.3634 0.51938,-0.48614 1.01151,-1.00041 1.50623,-1.51156 0.42327,-0.43883 0.84894,-0.8751 1.27364,-1.31256 0.34868,-0.37218 0.71477,-0.72617 1.09769,-1.06297 0.30784,-0.25214 0.60966,-0.51466 0.95767,-0.70993 1.39596,-0.61534 4.17708,-0.2029 4.90667,-0.20075 0.37096,0.0352 0.70568,0.18961 1.04738,0.32566 0.3328,0.16419 0.62984,0.38409 0.92018,0.6126 0.30163,0.26681 0.51815,0.60888 0.72931,0.94743 0.21575,0.36865 0.3678,0.76759 0.51173,1.16851 0.14364,0.42103 0.25993,0.85028 0.35796,1.28403 0.13264,0.4613 0.16726,0.90913 0.0794,1.37922 -0.16085,0.68805 -0.37651,1.36203 -0.60698,2.02936 -0.22943,0.69664 -0.52809,1.36496 -0.84846,2.02388 -0.36494,0.72265 -0.793,1.40991 -1.24477,2.08077 -0.52359,0.77423 -1.04518,1.54966 -1.55997,2.32978 -0.53756,0.85498 -1.08946,1.70037 -1.65265,2.53874 -0.54396,0.82507 -1.11996,1.62747 -1.7083,2.42107 -0.58671,0.82215 -1.19905,1.62453 -1.81407,2.42577 -0.73552,0.91927 -1.46367,1.84482 -2.20627,2.75864 -0.80437,0.98027 -1.62424,1.94783 -2.46983,2.89293 -0.8017,0.86964 -1.55385,1.78032 -2.27656,2.71603 -0.67737,0.87727 -1.29239,1.79733 -1.84371,2.75825 -0.58203,0.99904 -1.03524,2.06297 -1.4895,3.12398 -0.45789,0.99884 -0.8322,2.03092 -1.17419,3.07413 -0.37268,1.11476 -0.61721,2.2647 -0.84071,3.41679 -0.22407,1.20917 -0.40883,2.42517 -0.58317,3.64254 -0.15895,1.09951 -0.28824,2.20275 -0.40779,3.30694 -0.12308,1.09658 -0.20025,2.19765 -0.30201,3.29637 -0.11026,1.12806 -0.21766,2.2567 -0.31645,3.38572 -0.066,0.99551 -0.18706,1.98557 -0.30124,2.9764 -0.0985,0.90227 -0.23899,1.79928 -0.36351,2.69863 -0.11743,0.83269 -0.21259,1.66852 -0.29847,2.50531 -0.087,0.85439 -0.14976,1.71094 -0.2103,2.56748 -0.0574,0.78853 -0.1029,1.57802 -0.14517,2.36752 -0.0392,0.71345 -0.0717,1.42711 -0.1006,2.14116 -0.0258,0.61084 -0.0488,1.22226 -0.0689,1.83329 -0.0172,0.51722 -0.0335,1.03461 -0.0488,1.55202 0,0.0762 0,0.15052 -0.01,0.22772 0,0 -3.96888,-0.0196 -3.96888,-0.0196 l 0,0 c 0,-0.0762 0.01,-0.15051 0.01,-0.22771 0.0172,-0.5182 0.0335,-1.03658 0.0535,-1.55457 0.0239,-0.61221 0.0469,-1.22422 0.0756,-1.83623 0.0335,-0.71541 0.0641,-1.43083 0.10587,-2.14566 0.0449,-0.79165 0.0899,-1.58348 0.14976,-2.37416 0.0641,-0.86004 0.12672,-1.72051 0.21097,-2.57921 0.0861,-0.84187 0.18027,-1.68239 0.3,-2.52016 0.12758,-0.89564 0.26749,-1.78991 0.36838,-2.68887 0.11476,-0.9875 0.24176,-1.97344 0.30976,-2.96544 0.10041,-1.12981 0.21278,-2.25825 0.32152,-3.38689 0.0988,-1.10127 0.17032,-2.20468 0.29713,-3.30321 0.12098,-1.1089 0.24999,-2.217 0.41324,-3.32062 0.1773,-1.22343 0.36885,-2.44472 0.589,-3.66112 0.2235,-1.16734 0.45704,-2.33565 0.83173,-3.46585 0.34313,-1.05494 0.70989,-2.10305 1.17878,-3.10991 0.46267,-1.07117 0.90823,-2.15249 1.48968,-3.16717 0.55066,-0.98007 1.16128,-1.92184 1.84821,-2.81298 0.72605,-0.94509 1.4741,-1.87102 2.28488,-2.74555 0.84751,-0.93747 1.66689,-1.89976 2.47251,-2.87338 0.7404,-0.90736 1.45191,-1.83741 2.18676,-2.74907 0.61463,-0.79869 1.2329,-1.59404 1.81273,-2.41872 0.58585,-0.7895 1.16711,-1.58193 1.70888,-2.4027 0.56232,-0.83759 1.12245,-1.67595 1.64996,-2.53581 0.51441,-0.78032 1.03084,-1.55965 1.55319,-2.33467 0.44603,-0.65482 0.86969,-1.3245 1.23558,-2.0278 0.32248,-0.64093 0.61454,-1.29537 0.84282,-1.97638 0.23239,-0.64563 0.44116,-1.30201 0.59694,-1.97071 0.0832,-0.41322 0.0258,-0.80846 -0.0861,-1.21347 -0.0996,-0.41713 -0.21288,-0.83172 -0.35814,-1.23576 -0.13877,-0.37412 -0.29207,-0.74473 -0.51021,-1.08074 -0.20025,-0.30278 -0.41706,-0.59755 -0.72021,-0.8063 -0.28193,-0.20192 -0.57744,-0.3888 -0.90785,-0.50099 -0.33453,-0.12118 -0.67508,-0.20544 -1.03313,-0.20798 6.77286,-0.0196 4.42707,-0.15051 2.97506,0.0586 -0.36723,0.12315 -0.65901,0.35458 -0.95519,0.60068 -0.39248,0.31236 -0.75588,0.65951 -1.10141,1.02269 -0.427,0.43609 -0.85257,0.87394 -1.27843,1.3116 -0.50169,0.51428 -1.00099,1.03128 -1.51359,1.535 -0.54052,0.49806 -1.08917,0.99103 -1.67665,1.43318 -0.59369,0.37453 -1.17638,0.77542 -1.83597,1.02777 -0.63558,0.28421 -1.29325,0.51682 -1.95877,0.7203 -0.6548,0.19156 -1.32682,0.32017 -2.00247,0.41362 -1.7455,0.14074 -3.67778,0.50568 -5.30871,-0.21717 -0.30192,-0.2457 -0.56806,-0.52893 -0.77511,-0.86025 -0.19672,-0.32585 -0.36599,-0.66812 -0.48735,-1.02954 -0.15282,-0.42807 -0.29971,-0.8585 -0.39936,-1.3026 -0.10855,-0.46365 -0.1995,-0.93297 -0.25659,-1.40581 -0.0641,-0.48867 -0.13369,-0.97655 -0.21814,-1.46211 -0.0958,-0.55336 -0.19203,-1.10674 -0.31062,-1.6558 -0.12604,-0.5739 -0.2606,-1.14682 -0.44775,-1.70429 -0.14871,-0.40912 -0.31167,-0.82155 -0.63874,-1.12375 -0.25897,-0.20309 -0.55343,-0.31666 -0.88614,-0.31978 -1.59947,-0.0645 5.84818,-0.10556 2.81956,0.0253 -0.44421,0.0801 -0.86854,0.24806 -1.29717,0.38704 -0.51604,0.17592 -1.03246,0.35262 -1.52889,0.58034 -0.56816,0.24571 -1.13412,0.50588 -1.66919,0.81745 -0.49777,0.32154 -0.95997,0.68825 -1.3863,1.10048 -0.38656,0.44176 -0.68675,0.93923 -0.97528,1.44901 -0.32649,0.54008 -0.58604,1.11534 -0.86089,1.68279 -0.27667,0.54868 -0.55563,1.09561 -0.83526,1.64233 -0.23545,0.45837 -0.45742,0.92711 -0.76717,1.34189 -0.21814,0.27482 -0.45838,0.53618 -0.76765,0.70993 -0.25659,0.16421 -0.53785,0.24688 -0.84215,0.26174 -1.56036,-8e-4 -3.39404,0.59306 -4.76581,-0.32369 -0.24998,-0.17397 -0.4883,-0.36788 -0.68416,-0.60302 -0.19978,-0.25782 -0.36742,-0.53617 -0.51078,-0.82957 -0.14928,-0.32155 -0.28212,-0.65072 -0.39238,-0.9879 -0.13312,-0.37589 -0.23602,-0.7592 -0.32477,-1.14819 -0.11916,-0.44899 -0.24702,-0.89602 -0.39353,-1.33719 -0.17023,-0.50724 -0.34935,-1.01213 -0.5629,-1.50335 -0.23679,-0.5344 -0.48898,-1.06295 -0.80409,-1.55651 -0.31483,-0.492 -0.64027,-0.99708 -1.13814,-1.32333 -0.44852,-0.25761 -0.92774,-0.40227 -1.44722,-0.42906 -1.45984,-0.0508 -0.54932,-0.0195 3.36879,-0.0234 0.0983,-1.9e-4 -0.19681,8.2e-4 -0.29503,0 -0.0775,0 -0.54683,0.0567 -0.62057,0.0704 -0.10481,0.0195 -0.20762,0.043 -0.31138,0.0645 -0.68254,0.20016 -1.35704,0.42261 -2.00056,0.72929 -0.7204,0.33797 -1.42857,0.70231 -2.10212,1.12765 -0.68091,0.44137 -1.37731,0.89427 -1.84773,1.57177 -0.48716,0.69059 -0.81662,1.47364 -1.03418,2.28952 -0.29771,1.08036 -0.49539,2.18455 -0.61627,3.29873 -0.12652,1.40971 -0.16716,2.82471 -0.13943,4.2399 0.0392,1.53051 0.0803,3.06161 0.22063,4.58705 0.12623,1.51508 0.28642,3.02644 0.53,4.52783 0.24578,1.58506 0.51078,3.16933 0.98445,4.70591 0.42624,1.48458 0.83651,2.97463 1.31477,4.44357 0.47817,1.47168 0.96226,2.942 1.51024,4.38944 0.51136,1.3374 1.08258,2.64997 1.64108,3.96782 0.59407,1.40327 1.22535,2.78991 1.83358,4.18693 0.60861,1.33681 1.23644,2.66384 1.89306,3.97778 0.59647,1.2551 1.19274,2.51451 1.67569,3.81848 0.44594,1.25451 0.80046,2.53249 1.08755,3.83293 0.32917,1.25706 0.69592,2.50551 0.94103,3.7831 0.23622,1.26996 0.42557,2.54949 0.52828,3.83782 0.0978,1.09169 0.17836,2.18533 0.20533,3.28153 0.0229,1.00509 0.01,2.01058 0.0153,3.01587 0,0.7897 0.01,1.57918 0.01,2.36869 0,0.52816 0,1.05611 0.01,1.58427 7.6e-4,0.33288 5.7e-4,0.66596 0.01,0.99865 0,0 -3.98811,0 -3.98811,0 z"
       inkscape:connector-curvature="0" />
    <g
       style="font-size:215.99934387px;font-style:normal;font-variant:normal;font-weight:normal;font-stretch:normal;line-height:125.99999905%;letter-spacing:0px;word-spacing:0px;fill:#1a1a1a;fill-opacity:1;stroke:none;font-family:Playtime With Hot Toddies;-inkscape-font-specification:Playtime With Hot Toddies"
       id="text4825"
       transform="matrix(0.95633542,0,0,0.95633542,-32.516636,23.120617)">
      <path
         d="m -798.55488,586.10365 c -0.72001,-3.31198 -1.08001,-7.34396 -1.08,-12.09596 -1e-5,-4.89596 0.072,-9.93594 0.216,-15.11995 0.28799,-5.18395 0.57599,-10.15193 0.864,-14.90396 0.28798,-4.89593 0.43198,-9.07192 0.432,-12.52796 l 0.216,0 c 0.86398,-12.52789 1.29598,-25.19984 1.29599,-38.01588 -10e-6,-4.60789 0.21599,-9.21587 0.648,-13.82396 0.43198,-4.60787 0.64798,-9.21585 0.648,-13.82396 -2e-5,-3.88786 -2e-5,-7.91984 0,-12.09596 -2e-5,-4.31985 0.43198,-8.35183 1.296,-12.09597 2.15997,-1.58384 3.95996,-2.30384 5.39998,-2.15999 1.58397,0.14415 3.74396,0.36015 6.47998,0.648 0.14397,0.28815 0.64797,0.50415 1.512,0.648 0.86396,0.14414 1.79995,0.28814 2.80799,0.43199 1.15196,0.14415 2.15995,0.21615 3.02399,0.216 1.00795,1.5e-4 1.65595,0.0721 1.94399,0.216 -0.72004,20.44807 -1.08004,40.75199 -1.07999,60.91182 0.14395,20.016 -0.14404,40.24792 -0.864,60.69581 l -0.864,23.54393 c -0.72004,0.432 -1.58403,0.864 -2.59199,1.296 -0.86403,0.288 -1.87203,0.576 -3.02399,0.864 -1.15203,0.144 -2.44803,0.072 -3.88799,-0.216 -0.43203,0 -1.29602,-0.072 -2.59199,-0.216 -1.29602,-0.288 -2.66402,-0.576 -4.10399,-0.864 -1.44002,-0.432 -2.80801,-0.79199 -4.10399,-1.08 -1.29601,-0.28799 -2.16001,-0.43199 -2.59199,-0.432"
         id="path4270"
         inkscape:connector-curvature="0" />
      <path
         d="m -688.83059,587.18365 c -1.00807,0.144 -2.01607,0.288 -3.02399,0.432 -1.00807,0.144 -1.94407,0.36 -2.80799,0.648 -3.88806,1.15199 -7.48805,0.792 -10.79997,-1.08 0.28794,-10.22395 0.71994,-20.51991 1.296,-30.88791 0.14393,-3.02395 0.14393,-6.11994 0,-9.28797 -0.14407,-3.31194 -0.43207,-6.47993 -0.864,-9.50397 -1.15206,-7.05592 -3.45605,-11.6639 -6.91198,-13.82396 -3.31204,-2.30392 -6.91203,-2.95192 -10.79996,-1.94399 -3.74404,0.86406 -7.27202,2.95206 -10.58397,6.26398 -3.16803,3.16805 -5.18402,6.62404 -6.04798,10.36797 -1.72803,7.34402 -2.73602,14.75999 -3.02399,22.24793 -0.14403,7.488 -0.21603,14.90397 -0.216,22.24793 l 0,5.18399 c -1.15203,0 -2.59202,0.072 -4.31999,0.216 -1.72802,0.144 -3.45601,0.216 -5.18399,0.216 -1.72801,0 -3.312,-0.216 -4.75198,-0.648 -1.29601,-0.576 -2.23201,-1.51199 -2.80799,-2.80799 -10e-6,-1.15199 -10e-6,-3.81598 0,-7.99198 -10e-6,-4.31997 -0.072,-9.35995 -0.216,-15.11995 -10e-6,-5.75995 -10e-6,-11.80793 0,-18.14395 -10e-6,-6.47992 -10e-6,-12.4559 0,-17.92794 0.14399,-5.61592 0.28799,-10.2959 0.432,-14.03996 0.28799,-3.74391 0.64798,-5.8319 1.07999,-6.26398 0.14399,-0.28792 0.57599,-0.50391 1.296,-0.648 0.71998,-0.14391 1.51198,-0.21591 2.37599,-0.216 0.86398,-0.14391 1.65598,-0.21591 2.376,-0.216 0.71997,9e-5 1.29597,-0.0719 1.72799,-0.216 0.71998,-0.57591 1.65597,-0.71991 2.80799,-0.432 1.15197,0.28809 2.08797,0.43209 2.80799,0.432 0.71997,2.01608 1.22397,4.24807 1.512,6.69598 0.43197,2.30407 0.64797,4.68006 0.648,7.12798 3.74395,-4.17591 8.06394,-7.7759 12.95996,-10.79997 5.03994,-3.1679 10.00792,-5.03989 14.90395,-5.61598 5.03993,-0.71991 9.79191,0.14409 14.25596,2.59199 4.46391,2.44808 8.0639,7.12806 10.79997,14.03996 2.7359,6.76804 4.1759,13.89602 4.31998,21.38394 0.28792,7.48802 0.35992,14.83199 0.216,22.03193 -8e-5,1.44002 -0.0721,3.38401 -0.216,5.83198 -8e-5,2.30401 -0.14408,4.68 -0.432,7.12798 -0.28808,2.448 -0.64808,4.82399 -1.07999,7.12798 -0.43208,2.304 -1.00808,4.10399 -1.728,5.39998"
         id="path4272"
         inkscape:connector-curvature="0" />
      <path
         d="m -597.98262,547.00777 c 2.44791,1.72804 3.88791,3.45603 4.31999,5.18399 0.57591,1.58403 1.15191,3.74402 1.72799,6.47998 0.86391,4.32001 0.64792,8.208 -0.648,11.66396 -1.15207,3.31201 -3.09607,6.192 -5.83198,8.63998 -2.73606,2.448 -5.97605,4.53599 -9.71997,6.26398 -3.74405,1.72799 -7.63204,3.09599 -11.66396,4.10398 -4.03204,0.864 -8.06403,1.512 -12.09597,1.944 -4.03202,0.432 -7.63201,0.57599 -10.79996,0.432 -5.04002,-0.288 -9.792,-1.224 -14.25596,-2.80799 -4.464,-1.728 -8.85598,-3.81599 -13.17596,-6.26399 0.43199,-1.29598 0.79199,-2.80798 1.08,-4.53598 0.28799,-1.72798 0.64799,-3.45598 1.07999,-5.18399 0.43199,-1.87197 1.00799,-3.59996 1.728,-5.18398 0.71999,-1.58397 1.65598,-2.95197 2.80799,-4.10399 l 3.23999,2.59199 c 1.00798,1.00802 2.30397,2.08802 3.88799,3.23999 1.58397,1.15202 3.23996,2.23202 4.96798,3.23999 1.87197,0.86402 3.67196,1.58402 5.39999,2.16 1.87196,0.57601 3.52795,0.86401 4.96798,0.864 9.07193,0.28801 16.1999,-0.71999 21.38394,-3.024 5.32792,-2.44797 7.91991,-5.61596 7.77597,-9.50397 -6e-5,-1.72796 -0.86406,-3.16796 -2.59199,-4.31998 -1.72805,-1.15197 -3.16805,-2.01596 -4.31999,-2.592 -3.88804,-1.72795 -8.42402,-3.02395 -13.60795,-3.88798 -5.04003,-0.86396 -9.79201,-2.08796 -14.25596,-3.67199 -4.46401,-1.58395 -8.28,-3.95994 -11.44797,-7.12798 -3.024,-3.16794 -4.536,-7.99192 -4.53598,-14.47196 -2e-5,-4.17592 1.07998,-7.9199 3.23999,-11.23196 2.15997,-3.45591 4.96796,-6.4799 8.42397,-9.07198 3.59996,-2.5919 7.63195,-4.75189 12.09596,-6.47998 4.46395,-1.7279 8.99993,-3.02389 13.60796,-3.88798 4.60793,-1.00791 9.07192,-1.4399 13.39196,-1.296 4.31992,10e-5 8.13591,0.50409 11.44797,1.512 0.71992,0.28809 1.72792,0.64809 3.02399,1.07999 1.29591,0.43209 2.30391,0.86409 3.02399,1.296 0.57592,1.58408 0.50392,2.95208 -0.216,4.10399 -0.72008,1.00808 -1.22408,2.30407 -1.51199,3.88798 -0.28808,0.28809 -0.50408,0.79208 -0.648,1.512 -0.14408,0.72008 -0.28808,1.51208 -0.432,2.37599 -0.14408,0.72008 -0.28808,1.44008 -0.432,2.16 -8e-5,0.72007 -0.14408,1.08007 -0.432,1.07999 -1.44007,0.14408 -2.95207,0.0721 -4.53599,-0.216 -1.44006,-0.28792 -2.95206,-0.50392 -4.53598,-0.64799 -3.16806,-0.28793 -6.55204,-0.35993 -10.15197,-0.216 -3.60005,7e-5 -7.12803,0.43207 -10.58397,1.29599 -3.31203,0.86407 -6.40802,2.23207 -9.28797,4.10399 -2.88003,1.87206 -5.11202,4.46405 -6.69598,7.77598 l -0.216,0.43199 c 0.14397,1.44006 0.64797,2.80806 1.512,4.10399 1.00796,1.15206 2.15995,2.16005 3.45599,3.02399 1.43995,0.86406 2.87995,1.58405 4.31998,2.16 1.43996,0.57605 2.80795,0.93605 4.10399,1.07999 3.31194,0.43205 6.62393,1.00805 9.93597,1.728 3.31193,0.57605 6.40792,1.36804 9.28797,2.37599 3.02392,0.86405 5.68791,1.80004 7.99198,2.80799 2.30392,1.00804 4.10391,2.01604 5.39998,3.02399"
         id="path4274"
         inkscape:connector-curvature="0" />
      <path
         d="m -553.73987,513.74387 c 0.57596,-0.71992 1.94396,-1.87191 4.10398,-3.45599 2.15996,-1.58391 4.17595,-2.9519 6.04798,-4.10398 3.31195,-1.87191 6.40794,-3.02391 9.28798,-3.45599 2.87993,-0.43191 6.04792,-1.00791 9.50397,-1.728 l 0.648,0.216 c 4.89591,1.00809 9.0719,2.08808 12.52796,3.23999 3.45591,1.15208 7.0559,3.67207 10.79996,7.55998 7.34389,7.63205 11.01588,16.56001 11.01597,26.78392 -9e-5,7.77602 -1.65609,14.39999 -4.96798,19.87194 -3.16808,5.47201 -7.63206,10.65599 -13.39196,15.55195 -2.44807,2.01601 -5.47206,4.104 -9.07198,6.26398 -3.45605,2.016 -7.12803,3.672 -11.01596,4.96799 -3.88804,1.296 -7.77603,2.08799 -11.66397,2.37599 -3.74403,0.288 -7.20001,-0.36 -10.36797,-1.944 -1.15203,10e-6 -2.08802,-0.35999 -2.80799,-1.07999 -0.57603,-0.71999 -1.44002,-1.15199 -2.59199,-1.296 -3e-5,4.75199 -0.072,9.50397 -0.216,14.25596 -0.14403,4.89597 -0.36003,9.71995 -0.648,14.47195 l 0.648,19.43995 c -1.58402,0.43195 -2.80802,0.79195 -3.67199,1.07999 -0.86402,0.43196 -1.72802,0.64796 -2.59199,0.648 -0.72002,0.14396 -1.58402,0.14396 -2.59199,0 -0.86402,-0.14404 -2.01601,-0.50404 -3.45599,-1.08 -0.28802,-0.14404 -1.15201,-0.43204 -2.59199,-0.86399 -1.29601,-0.43204 -2.01601,-0.72004 -2.16,-0.864 -0.43201,-0.43204 -0.64801,-1.22404 -0.64799,-2.37599 l 0,-91.58373 c -2e-5,-2.73593 -2e-5,-4.96792 0,-6.69598 -2e-5,-1.72793 -0.072,-3.31192 -0.216,-4.75198 -10e-6,-1.58393 -10e-6,-3.23992 0,-4.96799 -10e-6,-1.72792 -10e-6,-3.95991 0,-6.69598 -10e-6,-1.58391 -0.14401,-3.4559 -0.432,-5.61598 -0.14401,-2.15991 -0.14401,-4.0319 0,-5.61598 0.43199,-0.14391 1.22398,-0.35991 2.37599,-0.648 1.29598,-0.43191 2.80798,-0.79191 4.53599,-1.08 1.87197,-0.28791 3.95996,-0.5039 6.26398,-0.64799 2.30396,-0.14391 4.67995,-0.0719 7.12798,0.216 -4e-5,1.72808 -0.072,3.09607 -0.216,4.10398 -0.14403,1.00808 -0.28803,1.94408 -0.432,2.80799 -3e-5,0.86408 -3e-5,1.80008 0,2.808 0.14397,1.00807 0.43197,2.30407 0.864,3.88798 m -1.08,52.70384 c 4.31995,2.30402 9.21593,2.73602 14.68795,1.296 4.03194,-1.00797 7.91993,-2.23197 11.66397,-3.67199 3.88793,-1.58397 7.27191,-3.52796 10.15197,-5.83198 3.02392,-2.30396 5.39991,-5.11195 7.12798,-8.42398 1.87191,-3.45594 2.80791,-7.63192 2.80799,-12.52796 -8e-5,-5.18392 -1.80007,-8.99991 -5.39999,-11.44796 -3.60005,-2.59193 -7.84804,-4.10392 -12.74396,-4.53599 -4.75204,-0.43193 -9.57602,0.14407 -14.47195,1.728 -4.89603,1.44006 -8.64001,3.52805 -11.23197,6.26398 -1.00803,1.00805 -1.72803,3.24004 -2.15999,6.69598 -0.43203,3.45604 -0.72003,7.20002 -0.864,11.23196 -0.14403,4.03203 -0.14403,7.92001 0,11.66397 0.14397,3.60001 0.28797,6.12 0.432,7.55997"
         id="path4276"
         inkscape:connector-curvature="0" />
      <path
         d="m -454.05279,467.95201 c 2.73596,1.44012 4.53595,3.38411 5.39998,5.83199 1.00796,2.4481 1.22396,4.96809 0.648,7.55997 -0.57603,2.4481 -1.80003,4.68009 -3.67199,6.69598 -1.72802,1.8721 -3.96002,3.02409 -6.69598,3.45599 -3.88801,0.5761 -7.056,-0.0719 -9.50397,-1.94399 -2.30401,-2.01589 -3.744,-4.39188 -4.31999,-7.12798 -0.43201,-2.87988 -1e-5,-5.75987 1.296,-8.63997 1.43998,-3.02388 4.03197,-5.32787 7.77597,-6.91198 2.01598,-0.86388 3.74397,-1.00788 5.18399,-0.432 1.43997,0.43212 2.73596,0.93612 3.88799,1.51199 m -14.68796,50.75985 c -1e-5,-1.29592 0.072,-3.02392 0.216,-5.18399 0.14399,-2.30391 0.28799,-3.8879 0.432,-4.75198 0.86398,8e-5 2.37598,-0.14392 4.53598,-0.432 2.30398,-0.28792 3.88797,-0.28792 4.75199,0 1.43997,0.14408 2.87997,0.43208 4.31999,0.864 1.43996,0.43208 2.73596,0.72008 3.88799,0.864 0.28796,1.29607 0.50396,3.88806 0.64799,7.77597 0.14397,3.74406 0.21597,8.13604 0.216,13.17596 -3e-5,5.04004 -0.072,10.44002 -0.216,16.19995 -3e-5,5.61602 -0.072,11.016 -0.216,16.19995 -0.14403,5.04001 -0.28803,9.50399 -0.43199,13.39196 -0.14403,3.744 -0.28803,6.26399 -0.432,7.55998 -0.14403,1.296 -1.15203,2.232 -3.02399,2.80799 -1.72802,0.432 -3.67202,0.72 -5.83199,0.864 -2.16001,0 -4.248,-0.072 -6.26398,-0.216 -2.016,-0.288 -3.312,-0.432 -3.88799,-0.432 -1e-5,-1.29599 -1e-5,-3.67198 0,-7.12798 0.14399,-3.59997 0.28799,-7.77596 0.432,-12.52796 0.14399,-4.75196 0.21599,-9.71994 0.216,-14.90395 0.14399,-5.32795 0.28799,-10.29593 0.432,-14.90396 0.14399,-4.75193 0.21599,-8.85591 0.216,-12.31196 -1e-5,-3.45592 -1e-5,-5.75991 0,-6.91198"
         id="path4278"
         inkscape:connector-curvature="0" />
      <path
         d="m -366.94768,514.17587 c -1.15206,0.14408 -2.23206,0.21608 -3.23999,0.216 -1.00806,-0.14392 -2.01606,-0.21592 -3.02399,-0.216 -0.28806,-0.14392 -0.86406,-0.21592 -1.72799,-0.216 -0.72006,8e-5 -1.22406,0.0721 -1.512,0.216 -3.88804,1.00807 -7.48803,2.59207 -10.79996,4.75199 -3.31204,2.16006 -6.33603,4.68005 -9.07198,7.55998 -2.59203,2.73605 -4.89602,5.68804 -6.91198,8.85597 -2.01602,3.02404 -3.67202,5.90403 -4.96798,8.63997 -3e-5,2.44804 -3e-5,5.68803 0,9.71997 0.14397,4.03202 0.21597,8.20801 0.216,12.52796 -3e-5,4.17601 -0.072,8.208 -0.216,12.09597 -0.14403,3.74399 -0.43203,6.69598 -0.864,8.85597 -0.28803,1.296 -1.29602,2.23199 -3.02399,2.80799 -1.58402,0.432 -3.38401,0.648 -5.39998,0.648 -2.01602,0.144 -4.03201,0.144 -6.04798,0 -2.01601,-0.144 -3.52801,-0.288 -4.53599,-0.432 -10e-6,-13.96794 0.072,-27.79189 0.216,-41.47187 0.28799,-13.82391 0.43199,-27.71985 0.432,-41.68788 -1e-5,-1.58391 0.072,-3.1679 0.216,-4.75198 0.14398,-1.72791 0.28798,-3.4559 0.432,-5.18399 1.29598,10e-5 2.87997,-0.1439 4.75198,-0.43199 1.87198,-0.28791 3.38397,-0.28791 4.53599,0 1.72797,0.43209 3.23996,1.22408 4.53598,2.37599 1.43997,1.00809 2.80797,2.73608 4.10399,5.18398 0.43197,1.87208 0.64797,3.81607 0.648,5.83199 -3e-5,2.01607 0.072,3.96006 0.216,5.83198 l 0.216,0 c 2.01596,-1.87192 4.10395,-3.95991 6.26398,-6.26398 2.30395,-2.30391 5.03994,-4.31991 8.20797,-6.04799 3.16795,-1.8719 6.91193,-3.2399 11.23197,-4.10398 4.31993,-0.86391 9.5759,-0.79191 15.76795,0.216 0.71993,0.57608 1.15192,1.58408 1.296,3.02399 0.14392,1.29608 0.0719,2.73607 -0.216,4.31998 -0.14407,1.44008 -0.43207,2.88008 -0.864,4.31999 -0.28807,1.29607 -0.57607,2.23207 -0.864,2.80799"
         id="path4280"
         inkscape:connector-curvature="0" />
      <path
         d="m -282.17807,580.05567 c -0.57608,0.57601 -1.44008,1.36801 -2.59199,2.376 -1.15208,1.008 -2.08808,1.728 -2.80799,2.15999 -8.06405,4.89598 -16.56002,7.91997 -25.48792,9.07197 -8.92802,1.29599 -17.20799,0.504 -24.83993,-2.37599 -7.632,-2.73599 -13.96797,-7.63197 -19.00794,-14.68796 -4.89599,-7.05595 -7.34398,-16.41592 -7.34398,-28.07991 0,-6.33593 1.07999,-12.31191 3.23999,-17.92795 2.15998,-5.61592 5.18397,-10.87189 9.07198,-15.76795 3.88796,-4.8959 8.71194,-8.92789 14.47195,-12.09596 5.90394,-3.3119 11.95192,-5.25589 18.14395,-5.83198 6.19192,-0.71991 12.0959,0.0721 17.71194,2.37599 5.75991,2.16008 10.51189,6.19206 14.25596,12.09596 1.43991,2.30407 2.59191,4.82406 3.45599,7.55998 0.86391,2.59206 1.36791,5.25605 1.51199,7.99197 0.14392,1.44006 0.28791,3.02405 0.432,4.75199 0.14391,1.72805 0.0719,3.31204 -0.216,4.75198 -0.72008,3.16805 -1.58408,6.12003 -2.59199,8.85598 -0.43208,1.15204 -1.72808,2.16003 -3.88799,3.02399 -2.16007,0.72004 -4.53606,1.29604 -7.12797,1.72799 -2.59207,0.43204 -5.11206,0.79204 -7.55998,1.08 -2.44806,0.14404 -4.17605,0.28804 -5.18399,0.432 -5.76004,0.57604 -11.52001,1.00803 -17.27994,1.296 -5.61603,0.14403 -11.304,0.28803 -17.06395,0.43199 l -1.296,0.864 c -0.43202,1.58403 -0.43202,3.16802 0,4.75199 0.43197,3.74401 1.79997,6.768 4.10399,9.07197 2.30396,2.30401 4.96795,4.104 7.99198,5.39998 3.02394,1.29601 6.26393,2.23201 9.71997,2.80799 3.45593,0.43202 6.62392,0.64802 9.50397,0.648 2.30393,-0.28798 4.31992,-0.64798 6.04798,-1.07999 1.87193,-0.43199 3.74392,-1.15199 5.61598,-2.16 1.87192,-1.15198 3.88792,-2.66397 6.04798,-4.53598 2.30392,-2.01597 5.03991,-4.67996 8.20798,-7.99198 0.28791,-0.14397 0.93591,0.43203 1.94399,1.72799 1.00791,1.29603 2.01591,2.80802 3.02399,4.53599 1.15191,1.58402 2.15991,3.16801 3.02399,4.75199 1.00791,1.44001 1.58391,2.30401 1.728,2.59199 -0.28809,0.86401 -1.00809,1.87201 -2.15999,3.02399 -1.15209,1.00801 -2.08809,1.8 -2.808,2.37599 m -16.84794,-43.63187 c 0.57592,-0.43194 0.93592,-1.00794 1.07999,-1.72799 0.28793,-0.71994 0.43193,-1.43994 0.432,-2.15999 0.28793,-1.87194 0.14393,-4.03193 -0.432,-6.47998 -0.57607,-2.59193 -1.36807,-4.67992 -2.37599,-6.26398 -2.73606,-4.60792 -6.40805,-7.3439 -11.01597,-8.20798 -4.60804,-0.86392 -9.28802,-0.28792 -14.03995,1.728 -4.60803,1.87206 -8.71202,4.89605 -12.31197,9.07197 -3.60002,4.17605 -5.68801,9.07203 -6.26398,14.68795 0.71997,0.86405 1.65597,1.44005 2.80799,1.728 0.28797,0.14405 1.43997,0.21605 3.45599,0.216 2.01596,-0.14395 4.46395,-0.28795 7.34398,-0.432 3.02395,-0.14395 6.26393,-0.28795 9.71997,-0.432 3.45594,-0.28795 6.69592,-0.50395 9.71997,-0.648 3.02393,-0.14395 5.61592,-0.28794 7.77598,-0.432 2.30392,-0.28794 3.67191,-0.50394 4.10399,-0.648"
         id="path4282"
         inkscape:connector-curvature="0" />
      <path
         d="m -194.11902,451.53606 c 0.43195,1.58414 0.86395,3.31213 1.296,5.18399 0.43195,1.87212 0.93594,3.60012 1.512,5.18398 2.44793,6.7681 4.53592,12.81608 6.26398,18.14395 1.87193,5.32808 4.17592,11.30406 6.91198,17.92794 2.44792,6.48007 4.89591,12.88804 7.34397,19.22394 2.59192,6.19205 5.25591,12.45603 7.99198,18.79195 0.28792,0.43205 0.57591,1.15205 0.864,2.15999 0.28791,1.00805 0.64791,2.08804 1.07999,3.23999 0.43192,1.29604 0.93591,2.66404 1.512,4.10399 0.43191,-1.58395 0.93591,-3.09595 1.51199,-4.53599 0.43191,-1.15194 0.79191,-2.23194 1.08,-3.23999 0.43191,-1.15194 0.79191,-1.87194 1.08,-2.15999 3.31189,-8.20791 6.55188,-16.34388 9.71997,-24.40793 3.31188,-8.06389 6.69587,-16.12785 10.15197,-24.19192 2.44788,-5.32788 4.82387,-10.58386 7.12798,-15.76796 2.30387,-5.32786 4.60786,-10.65583 6.91197,-15.98395 1.29588,-2.87985 2.30387,-5.39984 3.024,-7.55998 0.71987,-2.15984 1.87186,-4.67983 3.45598,-7.55997 1.29587,-0.86385 3.02386,-1.29585 5.18399,-1.296 2.30385,-0.14385 4.53585,0.0722 6.69598,0.648 2.30385,0.57615 4.391839,1.36814 6.26398,2.37599 1.871844,1.00815 3.023839,2.16014 3.455989,3.45599 0.863845,0.43215 1.151843,1.36814 0.863998,2.80799 -1.53e-4,0.57614 -0.07215,1.22414 -0.216,1.944 -1.52e-4,0.57614 0.07185,1.15213 0.216,1.72799 -0.144153,3.02413 -0.288152,5.54412 -0.431999,7.55998 -0.144152,2.01612 -0.288151,3.96011 -0.431999,5.83198 -1.52e-4,1.72812 -1.52e-4,3.67211 0,5.83198 -1.52e-4,2.01611 0.07185,4.5361 0.216,7.55998 -1.53e-4,0.86411 -1.53e-4,2.2321 0,4.10399 0.143847,1.8721 0.215846,3.81609 0.215999,5.83198 -1.53e-4,2.01609 -1.53e-4,4.03209 0,6.04798 0.143847,1.87209 0.215847,3.24008 0.215999,4.10399 0.431846,9.79205 1.151843,19.72801 2.159994,29.80791 1.007841,9.93602 1.871837,19.87198 2.591992,29.80791 0.287841,3.45602 0.50384,6.408 0.647998,8.85597 0.287841,2.44802 0.575839,5.4 0.863997,8.85597 0.28784,2.44801 0.647839,4.968 1.079997,7.55998 0.431838,2.592 0.647837,5.18399 0.647998,7.77598 -1.008157,0.432 -2.016153,0.79199 -3.023991,1.08 -1.008153,0.28799 -2.088149,0.57599 -3.23999,0.86399 -3.024142,0.576 -5.472132,0.864 -7.343978,0.864 -1.728144,0 -3.528134,-0.144 -5.399984,-0.432 -2.44813,-6.19198 -3.81613,-12.59995 -4.10399,-19.22394 -0.28813,-6.62396 -0.79213,-13.17593 -1.51199,-19.65594 -0.14414,-1.00796 -0.36014,-3.38395 -0.648,-7.12798 -0.14414,-3.88794 -0.36013,-8.06392 -0.648,-12.52796 -0.28813,-4.31993 -0.57613,-8.35191 -0.864,-12.09596 -0.14413,-3.88792 -0.36013,-6.40791 -0.64799,-7.55998 0.14386,-1.29592 0.14386,-2.59192 0,-3.88799 -0.14414,-1.29592 -0.28814,-2.51991 -0.432,-3.67199 -0.28813,-2.59191 -0.43213,-6.11989 -0.432,-10.58397 -1.3e-4,-4.46389 -0.14413,-8.56787 -0.432,-12.31196 -0.72013,1.4401 -1.22413,2.7361 -1.512,3.88799 -0.14413,1.0081 -0.36012,2.08809 -0.64799,3.23999 -0.28813,1.15209 -0.43213,2.08809 -0.432,2.80799 -0.28813,0.86409 -0.50413,1.51209 -0.648,1.944 -3.45611,10.22405 -7.2001,19.80001 -11.23197,28.72791 -3.8881,8.92803 -7.99208,18.43199 -12.31196,28.51191 -0.2881,0.43204 -0.8641,1.80003 -1.72799,4.10399 -0.8641,2.16002 -1.8721,4.53601 -3.02399,7.12798 -1.1521,2.44801 -2.1601,4.68 -3.02399,6.69598 -0.8641,2.01601 -1.5121,3.24 -1.944,3.67199 -0.28809,0.14401 -0.72009,0.21601 -1.29599,0.21599 -0.4321,2e-5 -1.0081,0.14402 -1.728,0.432 -0.86409,0.14402 -1.80008,0.28802 -2.80799,0.432 -1.00809,2e-5 -2.01608,0.14402 -3.02399,0.432 -2.01608,0.28801 -3.81607,0.57601 -5.39999,0.864 -1.44007,0.14401 -2.30407,0.072 -2.59199,-0.216 -0.86407,-1.00798 -1.80007,-2.51998 -2.80799,-4.53599 -1.00807,-2.01597 -2.01607,-4.17596 -3.02399,-6.47998 -1.15207,-2.44796 -2.16006,-4.67996 -3.02399,-6.69598 -0.72007,-2.15996 -1.36807,-3.81595 -1.94399,-4.96798 -1.15207,-2.15996 -2.66406,-5.75994 -4.53599,-10.79997 -1.87206,-5.03993 -3.88805,-10.65591 -6.04798,-16.84795 -2.01605,-6.04791 -4.17604,-12.31189 -6.47998,-18.79194 -2.16005,-6.47989 -4.24804,-12.67187 -6.26398,-18.57594 -0.28805,4.75208 -0.64805,9.72006 -1.08,14.90395 -0.28804,5.18406 -0.57604,10.08004 -0.864,14.68796 -0.28804,4.60805 -0.57604,8.64003 -0.864,12.09596 -0.14404,3.45604 -0.21604,5.90403 -0.21599,7.34398 -0.14405,4.89603 -0.43204,9.79201 -0.864,14.68795 -0.43204,4.89602 -0.79204,9.864 -1.08,14.90396 -0.14404,2.01601 -0.21604,4.032 -0.216,6.04798 0.14396,1.87201 0.21596,3.816 0.216,5.83198 -0.14404,1.15201 -0.21604,2.304 -0.216,3.45599 -4e-5,1.008 -4e-5,2.016 0,3.02399 -0.14404,0.864 -0.28804,1.728 -0.432,2.59199 -4e-5,0.864 -0.072,1.656 -0.216,2.376 -0.72003,-1e-5 -1.72803,-0.072 -3.02399,-0.216 -1.15203,-0.144 -2.37602,-0.288 -3.67199,-0.432 l -3.67198,-0.432 c -0.57603,-0.144 -1.15203,-0.216 -1.728,-0.216 -2.01602,0 -3.74401,0 -5.18398,0 -1.29602,0.144 -2.95201,-0.144 -4.96799,-0.864 -0.28801,-8.78396 -0.14401,-17.49593 0.432,-26.13592 0.71998,-8.63994 1.29598,-17.3519 1.72799,-26.13592 0.14399,-3.74393 0.35998,-8.35191 0.648,-13.82396 0.43198,-5.47191 0.86398,-11.23189 1.296,-17.27994 0.57598,-6.1919 1.15197,-12.45587 1.72799,-18.79195 0.57598,-6.33587 1.15198,-12.31185 1.728,-17.92794 0.71997,-5.61586 1.43997,-10.58384 2.15999,-14.90396 0.71997,-4.46384 1.43997,-7.84783 2.16,-10.15197 1.00796,-0.71985 2.51996,-1.15185 4.53598,-1.29599 2.01596,-0.28786 4.03195,-0.35985 6.04798,-0.216 2.15996,1.4e-4 4.10395,0.14414 5.83199,0.432 1.72794,0.14414 2.87994,0.28814 3.45598,0.432 0.86395,0.72014 1.51195,1.72813 1.944,3.02399 0.57595,1.29613 1.07994,2.73613 1.51199,4.31998"
         id="path4284"
         inkscape:connector-curvature="0" />
      <path
         d="m 7.1417582,580.05567 c -0.5760865,0.57601 -1.440083,1.36801 -2.5919922,2.376 -1.1520815,1.008 -2.0880777,1.728 -2.8079914,2.15999 -8.0640508,4.89598 -16.5600166,7.91997 -25.4879226,9.07197 -8.928022,1.29599 -17.207988,0.504 -24.839925,-2.37599 -7.632002,-2.73599 -13.967976,-7.63197 -19.007942,-14.68796 -4.895994,-7.05595 -7.343984,-16.41592 -7.343978,-28.07991 -6e-6,-6.33593 1.079989,-12.31191 3.239991,-17.92795 2.159981,-5.61592 5.183969,-10.87189 9.071972,-15.76795 3.887965,-4.8959 8.711946,-8.92789 14.471956,-12.09596 5.903943,-3.3119 11.951918,-5.25589 18.143945,-5.83198 6.191923,-0.71991 12.0959,0.0721 17.711946,2.37599 5.7599076,2.16008 10.5118884,6.19206 14.2559569,12.09596 1.4399106,2.30407 2.591906,4.82406 3.4559895,7.55998 0.8639095,2.59206 1.3679074,5.25605 1.5119954,7.99197 0.1439109,1.44006 0.2879103,3.02405 0.4319987,4.75199 0.1439104,1.72805 0.071911,3.31204 -0.2159993,4.75198 -0.7200859,3.16805 -1.5840824,6.12003 -2.5919922,8.85598 -0.4320844,1.15204 -1.7280792,2.16003 -3.88798815,3.02399 -2.16007355,0.72004 -4.53606395,1.29604 -7.12797835,1.72799 -2.5920647,0.43204 -5.1120545,0.79204 -7.5599775,1.08 -2.448057,0.14404 -4.17605,0.28804 -5.183984,0.432 -5.760039,0.57604 -11.520016,1.00803 -17.279947,1.296 -5.616023,0.14403 -11.304,0.28803 -17.063948,0.43199 l -1.295997,0.864 c -0.432025,1.58403 -0.432025,3.16802 0,4.75199 0.431972,3.74401 1.799966,6.768 4.103988,9.07197 2.30396,2.30401 4.967949,4.104 7.991976,5.39998 3.023949,1.29601 6.263936,2.23201 9.71997,2.80799 3.455938,0.43202 6.623925,0.64802 9.503971,0.648 2.303933,-0.28798 4.319925,-0.64798 6.047982,-1.07999 1.871928,-0.43199 3.743921,-1.15199 5.615983,-2.16 1.8719226,-1.15198 3.8879144,-2.66397 6.0479815,-4.53598 2.3039149,-2.01597 5.03990387,-4.67996 8.2079751,-7.99198 0.2879148,-0.14397 0.9359122,0.43203 1.9439941,1.72799 1.00791,1.29603 2.0159059,2.80802 3.0239908,4.53599 1.1519064,1.58402 2.1599023,3.16801 3.0239905,4.75199 1.007904,1.44001 1.583902,2.30401 1.727995,2.59199 -0.288093,0.86401 -1.00809,1.87201 -2.1599934,3.02399 -1.1520869,1.00801 -2.0880831,1.8 -2.8079914,2.37599 M -9.7061907,536.4238 c 0.5759258,-0.43194 0.9359243,-1.00794 1.0799968,-1.72799 0.2879258,-0.71994 0.4319252,-1.43994 0.4319986,-2.15999 0.2879254,-1.87194 0.143926,-4.03193 -0.4319986,-6.47998 -0.5760707,-2.59193 -1.3680675,-4.67992 -2.3759931,-6.26398 -2.736059,-4.60792 -6.408044,-7.3439 -11.015966,-8.20798 -4.608041,-0.86392 -9.288022,-0.28792 -14.039958,1.728 -4.608027,1.87206 -8.71201,4.89605 -12.311962,9.07197 -3.600019,4.17605 -5.688011,9.07203 -6.263981,14.68795 0.71997,0.86405 1.655966,1.44005 2.807991,1.728 0.287969,0.14405 1.439965,0.21605 3.45599,0.216 2.015958,-0.14395 4.463949,-0.28795 7.343977,-0.432 3.023948,-0.14395 6.263935,-0.28795 9.719971,-0.432 3.455936,-0.28795 6.695923,-0.50395 9.71997,-0.648 3.023928,-0.14395 5.615918,-0.28794 7.775977,-0.432 2.303923,-0.28794 3.671917,-0.50394 4.1039873,-0.648"
         id="path4286"
         inkscape:connector-curvature="0" />
      <path
         d="m 32.099788,587.39965 c -2.736009,-1.43999 -4.608001,-3.38398 -5.615983,-5.83198 -0.864011,-2.44798 -1.00801,-4.89597 -0.431999,-7.34398 0.575984,-2.59197 1.72798,-4.82396 3.45599,-6.69598 1.871975,-2.01597 4.175966,-3.23996 6.911979,-3.67199 3.88796,-0.57597 6.983948,0.14403 9.287972,2.16 2.447956,1.87201 3.887951,4.248 4.319986,7.12797 0.575961,2.73601 0.143962,5.616 -1.295996,8.63998 -1.296031,2.87999 -3.81602,5.11198 -7.559977,6.69598 -2.01602,0.864 -3.744013,1.07999 -5.183984,0.64799 -1.440018,-0.43199 -2.736012,-1.00799 -3.887988,-1.72799 M 43.979752,537.0718 c -3.2e-5,1.29605 -0.144031,3.09604 -0.431999,5.39999 -0.14403,2.16004 -0.28803,3.60003 -0.431999,4.31998 -0.864027,5e-5 -1.944022,0.14405 -3.23999,0.432 -1.152022,0.14404 -2.160018,0.072 -3.02399,-0.216 -1.440019,-0.14395 -2.304016,-0.35995 -2.591993,-0.648 -0.28802,-0.28795 -1.080017,-0.50395 -2.375992,-0.64799 -0.288019,-1.29595 -0.648017,-4.60794 -1.079997,-9.93597 -0.288017,-5.32793 -0.648016,-11.6639 -1.079997,-19.00795 -0.288016,-7.34389 -0.576015,-15.19186 -0.863997,-23.54392 -0.288015,-8.35187 -0.504015,-16.19984 -0.647998,-23.54393 -0.144015,-7.34385 -0.288015,-13.67983 -0.431999,-19.00794 -1.5e-5,-5.32784 0.07198,-8.63983 0.215999,-9.93597 0.143984,-1.29585 1.29598,-2.30385 3.45599,-3.024 2.159972,-0.86384 4.535963,-1.36784 7.127978,-1.51199 2.591964,-0.28785 4.895954,-0.28785 6.911979,0 2.159958,0.28815 3.311954,0.86415 3.45599,1.72799 -3.7e-5,1.29615 -0.144036,4.46414 -0.431999,9.50398 -0.144035,5.04012 -0.432034,11.08809 -0.863997,18.14394 -0.432034,6.9121 -0.864032,14.32807 -1.295996,22.24793 -0.288033,7.92007 -0.648032,15.33604 -1.079997,22.24794 -0.432031,6.91205 -0.79203,12.88802 -1.079997,17.92794 -0.144031,4.89604 -0.216031,7.92003 -0.215999,9.07197"
         id="path4288"
         inkscape:connector-curvature="0" />
    </g>
    <path
       style="fill:#1a1a1a;fill-opacity:1;stroke:#666666;stroke-width:0;stroke-linecap:round;stroke-linejoin:miter;stroke-miterlimit:4;stroke-opacity:1;stroke-dasharray:none;stroke-dashoffset:0"
       id="path4947"
       d="m -905.75462,616.72285 c 0.64313,2.49051 2.3194,-2.27583 4.17077,-0.54981 2.69772,2.31969 4.68413,12.01882 6.6581,14.94051 1.95408,2.72346 3.72712,5.56817 5.54847,8.37941 1.05617,1.70972 2.11283,3.28865 3.51376,4.68044 0.80514,0.54648 1.58857,1.95231 2.61864,2.06675 0.56147,0.25559 1.04795,0.24064 1.64241,0.2613 1.5464,0.0217 3.09289,0.0203 4.63957,0.0207 3.07873,0.0947 6.15908,-0.30819 9.17718,-0.89111 4.62121,-0.74579 9.16514,-1.90342 13.64893,-3.23503 3.87009,-0.92657 7.51109,-2.39658 11.01281,-4.25302 2.29102,-1.08552 4.03141,-2.82187 5.8566,-4.54047 1.61048,-1.89005 3.43798,-3.58284 5.23454,-5.29296 1.71143,-1.69342 3.5365,-3.26643 5.57905,-4.54148 2.30829,-1.34064 4.75286,-2.43434 7.26389,-3.33193 3.26155,-1.12011 6.64718,-1.67196 10.02883,-2.27525 4.14485,-0.82882 8.36215,-1.06275 12.50976,-1.85662 3.51605,-0.66243 7.08579,-0.95367 10.65513,-1.12429 2.81196,-0.10449 5.62649,-0.0853 8.43989,-0.10192 2.67359,-0.19727 5.26435,0.24166 7.88385,0.69475 3.13502,0.78007 6.20803,1.80516 9.36357,2.49941 4.01012,1.1138 8.12847,1.72398 12.21004,2.5062 3.74503,0.65903 7.45174,1.55531 11.09509,2.64397 2.80151,1.05479 5.44345,2.4949 7.88161,4.21873 2.82684,2.44512 5.18264,5.32913 7.55888,8.19905 1.73574,2.23799 3.75147,4.19587 5.77956,6.15398 1.41266,1.40365 3.31671,1.47207 5.16165,1.90409 3.38996,0.91999 6.92112,1.03553 10.41019,1.1794 4.00546,0.10669 8.00339,0.3096 11.97942,-0.24809 2.57956,-0.64788 4.91277,-1.97056 7.1962,-3.29427 3.34781,-1.75567 6.53879,-3.76726 9.76758,-5.72466 4.87624,-3.16355 10.28937,-5.09586 15.76465,-6.90979 4.31338,-1.22996 8.5925,-2.57862 12.80697,-4.11434 2.03846,-0.94029 4.14583,-1.75421 5.92007,-3.15166 2.15598,-1.64019 4.55443,-2.85747 7.18229,-3.49156 1.86792,-0.79203 3.75045,-1.5504 5.6981,-2.1306 1.68569,-0.82357 3.52023,-1.23219 5.20559,-2.04867 1.60077,-0.77082 3.35819,-0.91706 4.92539,-1.74845 1.03766,-0.46576 2.11651,-0.83608 3.21746,-1.11963 2.84296,-0.20191 5.70464,-0.0968 8.55567,-0.10698 2.27691,0.16129 4.48887,-0.3495 6.7126,-0.75812 1.5194,-0.23661 2.24087,0.35524 3.63153,0.1544 l -0.34496,7.56141 0,0 c -1.2066,0.15578 -0.58378,0.0696 -1.86815,0.26095 -2.69514,0.46356 -5.39102,1.0573 -8.14337,0.86835 -2.26475,-0.0151 -4.55655,0.12265 -6.81701,0.0437 -0.0665,-0.002 0.12508,-0.0454 0.18762,-0.0682 -0.5153,0.11143 -1.01959,0.26765 -1.51185,0.45709 -1.6485,0.78968 -3.36893,1.25956 -5.09611,1.80945 -2.08318,0.95635 -4.2806,1.57471 -6.3902,2.47132 -2.13225,0.59736 -4.08191,1.66831 -6.20927,2.28774 -1.50035,0.23234 -2.82803,1.16345 -4.04911,2.00773 -2.48343,1.84214 -5.25465,3.15998 -8.12189,4.30634 -4.29792,1.47067 -8.62236,2.86251 -13.00082,4.0759 -4.90537,1.60419 -9.74407,3.29746 -14.07438,6.19461 -3.2739,2.01277 -6.5378,4.03279 -9.91609,5.86763 -3.20262,1.83839 -6.50623,3.60287 -10.17578,4.28713 -4.43612,0.55484 -8.88719,0.40384 -13.34878,0.26621 -3.98997,-0.15158 -8.0308,-0.28182 -11.91073,-1.31414 -3.29367,-0.74772 -6.55033,-1.41085 -8.98559,-3.98072 -2.2181,-2.18289 -4.45044,-4.33947 -6.35286,-6.8195 -1.94664,-2.3669 -3.84279,-4.79488 -6.15073,-6.81323 -1.57848,-1.30878 -3.59577,-2.07671 -5.40363,-3.01038 -3.37112,-1.02593 -6.80023,-1.87199 -10.26913,-2.48815 -4.15648,-0.78877 -8.34582,-1.42448 -12.43547,-2.52815 -3.02193,-0.6644 -5.99286,-1.55053 -8.97044,-2.38394 -2.19244,-0.35658 -4.31317,-0.7828 -6.55619,-0.56453 -2.68989,-0.0207 -5.38051,-0.0184 -8.06937,0.0686 -3.1985,0.1344 -6.39841,0.36364 -9.54769,0.96866 -4.15779,0.75252 -8.37363,1.01492 -12.52099,1.83715 -2.96165,0.56559 -5.93666,1.02306 -8.79722,2.01632 -2.01508,0.69742 -3.96065,1.59994 -5.80688,2.66609 -1.59512,0.82064 -2.78974,2.28262 -4.13339,3.43832 -1.81659,1.73588 -3.68497,3.427 -5.31191,5.34829 -2.35905,2.17672 -4.71022,4.36485 -7.63722,5.76618 -3.97739,2.05217 -8.12185,3.69481 -12.47599,4.77749 -4.74569,1.40324 -9.55558,2.60335 -14.43203,3.45908 -3.50688,0.64988 -7.06579,1.17695 -10.64086,1.10227 -1.66354,0.0111 -3.32776,0.0528 -4.99073,0.0142 -1.69931,-0.0734 -3.33273,-0.32013 -4.87559,-1.08576 -1.78806,-0.946 -3.38208,-2.18188 -4.79248,-3.6345 -1.82698,-1.82946 -3.23538,-3.86131 -4.58372,-6.06408 -1.7586,-2.77133 -3.48957,-5.5642 -5.41075,-8.22767 -1.68459,-2.47777 -3.31227,-4.90479 -5.62851,-6.86185 -3.00261,-3.01638 -6.97236,-9.88683 -7.90746,-14.12711 l 9.37142,-0.81685 z"
       inkscape:connector-curvature="0"
       sodipodi:nodetypes="cccccccccccccccccccccccccccccccccccccccccccccccccccccccccccccccccccccccccccccccccccccccc" />
    <path
       style="fill:#1a1a1a;fill-opacity:1;stroke:#666666;stroke-width:0;stroke-linecap:round;stroke-linejoin:miter;stroke-miterlimit:4;stroke-opacity:1;stroke-dasharray:none;stroke-dashoffset:0"
       id="path4949"
       d="m -552.53848,606.76789 c 9.30367,-0.76719 18.60708,-1.47563 27.95659,-1.97764 8.06682,-0.27173 16.04428,-1.14097 24.09072,-1.56679 6.95989,-0.31984 13.95303,-0.50216 20.91908,-0.21502 10.22621,1.21007 20.58862,1.67499 30.90742,2.3959 9.02686,0.82646 17.94273,2.11906 26.50871,4.14421 6.2042,1.59883 11.88546,3.88027 17.86665,5.78249 6.39269,2.3701 13.41457,3.52255 20.51045,4.6031 8.40284,1.21189 16.84859,2.2703 25.28616,3.37444 6.12185,0.61895 12.15287,1.54345 18.26912,2.18108 5.9489,0.653 11.86102,1.28193 17.88412,1.58907 9.93399,0.45513 19.866,0.42587 29.79713,0.0275 8.10168,-0.4188 16.21192,-0.73919 24.33198,-0.95552 5.96364,-0.4974 11.91841,-0.97056 17.92297,-1.21433 7.54248,-0.23871 15.0987,-0.22079 22.64848,-0.22828 7.64527,0.21929 15.22801,-0.39044 22.82671,-0.81694 5.81176,-0.34289 11.64023,-0.49043 17.47219,-0.56706 42.3538,0.10969 59.36445,9.20852 66.06479,10.61143 -22.43037,-3.12641 -56.20352,-4.4465 -82.4786,-2.07066 -7.93784,0.43763 -15.86881,1.0348 -23.8521,0.82185 -7.29842,0.0181 -14.60189,0.0211 -21.89263,0.26365 -6.12515,0.25718 -12.19011,0.79264 -18.2872,1.23102 -8.01128,0.14057 -16.01045,0.45242 -24.00367,0.82373 -10.48922,0.41752 -20.98777,0.44058 -31.48359,0.0408 -6.39698,-0.30332 -12.6897,-0.90234 -19.00161,-1.61002 -6.24289,-0.69818 -12.41684,-1.60982 -18.66075,-2.30278 -8.55577,-1.11954 -17.10545,-2.24019 -25.63257,-3.44941 -8.0126,-1.19762 -15.94262,-2.52029 -23.18198,-5.14788 -5.61639,-1.78236 -10.95543,-3.88851 -16.70936,-5.48571 -7.58352,-1.86211 -15.54967,-2.97082 -23.54971,-3.78572 -10.12269,-0.74547 -20.31505,-1.11462 -30.36362,-2.26642 -6.36017,-0.27357 -12.74558,-0.0302 -19.10225,0.20968 -8.05383,0.43358 -16.05523,1.22156 -24.12973,1.48626 -9.17602,0.45785 -19.78738,2.13068 -28.87631,3.06663 z"
       inkscape:connector-curvature="0"
       sodipodi:nodetypes="ccccccccccccccccccccccccccccccccccc" />
  </g>
</svg>
