<?xml version="1.0" encoding="UTF-8" standalone="no"?>
<!-- Created with Inkscape (http://www.inkscape.org/) -->

<svg
   xmlns:dc="http://purl.org/dc/elements/1.1/"
   xmlns:cc="http://creativecommons.org/ns#"
   xmlns:rdf="http://www.w3.org/1999/02/22-rdf-syntax-ns#"
   xmlns:svg="http://www.w3.org/2000/svg"
   xmlns="http://www.w3.org/2000/svg"
   xmlns:sodipodi="http://sodipodi.sourceforge.net/DTD/sodipodi-0.dtd"
   xmlns:inkscape="http://www.inkscape.org/namespaces/inkscape"
   width="1601.46"
   height="315.29999"
   id="svg2"
   version="1.1"
   inkscape:version="0.48.3.1 r9886"
   sodipodi:docname="logo.svg"
   inkscape:export-filename="/home/heydon/public_html/inspireme_anatomy/images/logo.png"
   inkscape:export-xdpi="52.825169"
   inkscape:export-ydpi="52.825169">
  <defs
     id="defs4" />
  <sodipodi:namedview
     id="base"
     pagecolor="#ffffff"
     bordercolor="#666666"
     borderopacity="1.0"
     inkscape:pageopacity="0.0"
     inkscape:pageshadow="2"
     inkscape:zoom="0.35"
     inkscape:cx="984.27244"
     inkscape:cy="209.60838"
     inkscape:document-units="px"
     inkscape:current-layer="layer1"
     showgrid="false"
     inkscape:window-width="1316"
     inkscape:window-height="744"
     inkscape:window-x="50"
     inkscape:window-y="24"
     inkscape:window-maximized="1"
     fit-margin-top="0"
     fit-margin-left="0"
     fit-margin-right="0"
     fit-margin-bottom="0" />
  <metadata
     id="metadata7">
    <rdf:RDF>
      <cc:Work
         rdf:about="">
        <dc:format>image/svg+xml</dc:format>
        <dc:type
           rdf:resource="http://purl.org/dc/dcmitype/StillImage" />
        <dc:title />
      </cc:Work>
    </rdf:RDF>
  </metadata>
  <g
     inkscape:label="Layer 1"
     inkscape:groupmode="layer"
     id="layer1"
     transform="translate(262.45962,1709.905)">
    <path
       sodipodi:type="arc"
       style="fill:#d4ff2a;fill-opacity:1;stroke:#000000;stroke-width:2;stroke-linecap:square;stroke-linejoin:miter;stroke-miterlimit:4;stroke-opacity:0;stroke-dasharray:none;stroke-dashoffset:0"
       id="path3117"
       sodipodi:cx="459.11432"
       sodipodi:cy="40.955818"
       sodipodi:rx="20.708128"
       sodipodi:ry="17.172594"
       d="m 479.82245,40.955818 a 20.708128,17.172594 0 1 1 -41.41626,0 20.708128,17.172594 0 1 1 41.41626,0 z"
       transform="matrix(0.97468234,0,0,0.97468234,-41.385667,-1664.2113)" />
    <g
       style="font-size:38.57480621px;font-style:normal;font-variant:normal;font-weight:normal;font-stretch:normal;line-height:125%;letter-spacing:0px;word-spacing:0px;fill:#444444;fill-opacity:1;stroke:none;font-family:Cabin;-inkscape-font-specification:Cabin"
       id="text3020"
       transform="matrix(0.97916783,0,0,0.97916783,213.79986,-31.909788)">
      <path
         d="m -262.08929,-1493.5493 c -0.37033,6.6657 -0.46291,13.0537 -0.27774,19.1639 0.18515,5.9251 0.92578,12.1279 2.22191,18.6085 3.14768,0.3703 6.29539,1.111 9.44312,2.2219 3.33283,0.9258 6.57311,1.3887 9.72085,1.3887 5.92504,0.9258 11.01691,-0.3703 15.27562,-3.8883 1.1109,-32.0325 1.75896,-63.7873 1.94417,-95.2644 0.1851,-31.4769 0.74058,-63.1391 1.66643,-94.9866 -1.66648,-0.3701 -4.07355,-0.6479 -7.2212,-0.8332 -2.96259,-0.185 -5.09192,-0.7404 -6.38799,-1.6664 -3.88838,-0.3702 -7.12866,-0.5553 -9.72085,-0.5555 -2.4071,-0.185 -5.46222,1.0186 -9.16538,3.6106 -1.29613,5.3698 -1.94419,10.832 -1.94417,16.3866 -2e-5,5.3698 -2e-5,10.8319 0,16.3865 -2e-5,5.9253 -0.27776,11.8504 -0.83321,17.7753 -0.5555,5.9252 -0.83324,11.8503 -0.83322,17.7753 -2e-5,7.7768 -0.18518,15.4609 -0.55547,23.0523 -0.18518,7.5916 -0.46292,15.2757 -0.83322,23.0523 l -0.55548,0 0,2.7774 c -2e-5,5.74 -0.27775,11.5725 -0.83321,17.4975 -0.37034,5.74 -0.74066,11.5725 -1.11096,17.4976 m 7.49894,-32.2177 c 0.74062,-8.7024 1.20351,-17.3123 1.3887,-25.8297 0.37029,-8.5172 0.55545,-17.1271 0.55548,-25.8297 -3e-5,-5.925 0.27771,-11.8501 0.83321,-17.7753 0.55545,-5.9249 0.83319,-11.85 0.83322,-17.7753 -3e-5,-4.8139 -3e-5,-9.7206 0,-14.7201 -3e-5,-4.9991 0.46287,-9.9058 1.38869,-14.7201 2.03672,-1.296 3.98089,-1.8514 5.83251,-1.6665 1.85155,0.1854 3.79572,0.4631 5.83251,0.8332 1.48123,0.7409 3.14766,1.2038 4.9993,1.3887 1.85154,2e-4 3.61055,0.093 5.27703,0.2778 -0.92585,30.5514 -1.48132,61.01 -1.66643,91.376 -0.18521,30.181 -0.83327,60.6396 -1.94417,91.376 -1.29616,0.7406 -2.77743,1.2035 -4.44382,1.3887 -1.66647,0.1851 -3.24032,0.093 -4.72156,-0.2778 -2.59226,0 -5.0919,-0.3703 -7.49894,-1.1109 -2.4071,-0.9258 -4.90674,-1.5739 -7.49894,-1.9442 -0.92582,-5.3696 -1.38872,-10.7392 -1.38869,-16.1088 -3e-5,-5.3696 0.0926,-10.7392 0.27773,-16.1089 0.3703,-5.5547 0.74062,-11.0169 1.11096,-16.3866 0.55545,-5.5547 0.83319,-11.0168 0.83321,-16.3865"
         style="font-size:277.73861694px;fill:#444444;fill-opacity:1;font-family:PlaytimeWithHotToddies3D;-inkscape-font-specification:PlaytimeWithHotToddies3D"
         id="path3025"
         inkscape:connector-curvature="0" />
      <path
         d="m -111.92383,-1452.1663 c 2.03666,-0.3703 3.98083,-0.7406 5.83251,-1.111 2.03665,-0.3703 4.0734,-0.7406 6.110255,-1.1109 1.296006,-2.2219 2.2218,-4.8141 2.777386,-7.7767 0.740526,-3.1477 1.296003,-6.2954 1.666431,-9.4431 0.370208,-3.1477 0.647946,-6.2954 0.833216,-9.4431 0.185048,-3.1477 0.277627,-6.0176 0.277739,-8.6099 0.185047,-9.4431 0.09247,-19.0713 -0.277739,-28.8848 -0.18527,-9.8134 -2.129438,-19.1639 -5.832508,-28.0516 -3.70329,-8.8876 -8.42484,-15.0904 -14.16467,-18.6085 -5.55486,-3.5179 -11.47994,-5.0918 -17.77527,-4.7216 -6.29548,0.1853 -12.68346,2.0369 -19.16397,5.5548 -6.29545,3.333 -11.9428,7.4065 -16.94205,12.2205 -0.37036,-2.5921 -0.83326,-4.9992 -1.3887,-7.2212 -0.37035,-2.2218 -0.92583,-4.4437 -1.66643,-6.6657 -1.29615,-0.1851 -2.96258,-0.2777 -4.99929,-0.2778 -1.85162,-0.185 -3.79579,-0.185 -5.83251,0 -2.03678,0.1853 -3.98094,0.463 -5.83252,0.8332 -1.66644,0.1853 -3.05514,0.6482 -4.16607,1.3887 -0.92581,0.5556 -1.57387,1.6666 -1.94418,3.3329 -0.18517,1.4814 -0.37032,2.6849 -0.55547,3.6106 -0.74065,7.9619 -1.11097,16.0164 -1.11096,24.1633 -1e-5,8.147 -1e-5,16.3866 0,24.7187 0.18515,8.3322 0.37031,16.6644 0.55548,24.9965 0.18515,8.147 0.18515,16.2014 0,24.1632 1.11094,2.4071 2.77737,4.0735 4.9993,4.9993 2.22189,0.9258 4.62895,1.4813 7.2212,1.6665 2.5922,0.1851 5.27701,0.092 8.05442,-0.2778 2.77735,-0.1851 5.18442,-0.2777 7.2212,-0.2777 l 0,-2.7774 c -3e-5,-10.5541 -3e-5,-21.1081 0,-31.6622 0.18512,-10.7392 1.57382,-21.2932 4.16608,-31.6622 1.11091,-4.6289 3.51798,-8.795 7.22121,-12.4982 3.70313,-3.7031 7.59146,-6.0176 11.66502,-6.9435 4.25859,-1.1109 8.23951,-0.2777 11.94276,2.4996 3.7031,2.5923 6.29533,7.8694 7.77668,15.8311 0.92571,5.3697 1.38861,10.7393 1.38869,16.1089 0.18508,5.3696 0.0925,10.8318 -0.27774,16.3866 -0.18524,5.3696 -0.46297,10.8318 -0.83321,16.3865 -0.3704,5.3697 -0.64814,10.7393 -0.83322,16.1089 2.40699,1.4813 4.6289,2.407 6.66573,2.7774 2.03666,0.5554 4.44373,0.648 7.2212,0.2777 m -76.93359,-107.7626 c 1.29609,-0.3702 3.24026,-0.6479 5.83251,-0.8332 2.5922,-0.185 4.90669,-0.2776 6.94346,-0.2777 1.48124,5.3697 2.22188,10.4616 2.22191,15.2756 l 0,7.2212 c 2.59219,-2.9625 5.64732,-6.0176 9.16538,-9.1654 3.70313,-3.3327 7.59147,-6.2953 11.66502,-8.8876 4.2586,-2.7773 8.60983,-4.9066 13.05371,-6.388 4.44375,-1.4812 8.70241,-1.9441 12.77598,-1.3887 4.25858,0.5556 8.23949,2.4072 11.94276,5.5548 3.70309,2.9626 6.94337,7.7768 9.72085,14.4424 1.66633,4.0736 2.86986,8.3322 3.6106,12.776 0.92569,4.4439 1.57375,9.0728 1.944175,13.8869 0.185052,3.1478 0.277632,7.499 0.277738,13.0537 -1.06e-4,5.3697 -0.09269,11.017 -0.277738,16.9421 -0.185265,5.7399 -0.555585,11.2947 -1.110955,16.6643 -0.55558,5.1844 -1.3888,9.0728 -2.49965,11.665 -2.77748,0.3703 -5.55487,0.9258 -8.33216,1.6664 -2.77747,0.7407 -5.55486,0.4629 -8.33215,-0.8332 0.18507,-5.1844 0.46281,-10.3689 0.83321,-15.5533 0.37023,-5.3696 0.64797,-10.6467 0.83322,-15.8311 0.37023,-5.1845 0.46281,-10.3689 0.27774,-15.5534 -9e-5,-5.3696 -0.46299,-10.6466 -1.3887,-15.8311 -1.66651,-9.443 -4.90679,-15.831 -9.72085,-19.164 -4.81421,-3.5179 -9.90608,-4.814 -15.27562,-3.8883 -5.36967,0.9259 -10.46154,3.6107 -15.27563,8.0544 -4.62902,4.4439 -7.77672,9.8135 -9.44311,16.1088 -2.59226,9.9987 -3.98095,20.1824 -4.16608,30.5513 -3e-5,10.3689 -3e-5,20.8304 0,31.3845 -0.92583,0 -2.22194,0.092 -3.88834,0.2777 -1.4813,0.1852 -3.05515,0.2777 -4.72156,0.2777 -1.66645,-0.1851 -3.2403,-0.3703 -4.72155,-0.5554 -1.48129,-0.3704 -2.49967,-1.0184 -3.05513,-1.9442 0.3703,-15.183 0.27772,-30.3661 -0.27774,-45.5491 -0.55549,-15.183 -0.37033,-30.3661 0.55548,-45.5492 -2e-5,-2.7773 0.27772,-5.5547 0.83322,-8.3321 l 0,-0.2778"
         style="font-size:277.73861694px;fill:#444444;fill-opacity:1;font-family:PlaytimeWithHotToddies3D;-inkscape-font-specification:PlaytimeWithHotToddies3D"
         id="path3027"
         inkscape:connector-curvature="0" />
      <path
         d="m -77.319331,-1476.3296 c -0.740644,2.5923 -1.3887,5.0919 -1.94417,7.499 -0.370324,2.4071 -0.925801,4.9067 -1.666432,7.4989 6.110239,3.3329 12.220482,6.2029 18.330749,8.6099 6.295379,2.5923 13.053679,4.0735 20.274919,4.4438 3.888293,0.1852 8.424686,0 13.609192,-0.5554 5.369551,-0.3704 10.739159,-1.2036 16.10884,-2.4997 5.3695348,-1.2961 10.5539838,-3.0551 15.5533625,-5.277 5.1843604,-2.2219 9.6281735,-5.0919 13.3314535,-8.6099 3.703076,-3.518 6.480459,-7.5915 8.332159,-12.2205 1.851478,-4.8141 2.221796,-10.3689 1.110954,-16.6643 -0.740747,-3.7032 -1.573962,-6.7583 -2.499647,-9.1654 -0.925904,-2.407 -3.055231,-4.9067 -6.387989,-7.4989 -3.70328,-2.9625 -8.7025701,-5.1844 -14.9978849,-6.6658 -6.110331,-1.6663 -12.2205741,-3.1476 -18.3307491,-4.4438 -6.110312,-1.4812 -11.5725,-3.055 -16.386578,-4.7215 -4.814184,-1.8516 -7.591567,-4.4438 -8.332159,-7.7767 2.221863,-4.2586 5.369564,-7.4989 9.443113,-9.7209 4.073442,-2.2218 8.517256,-3.7031 13.331454,-4.4438 4.814064,-0.7405 9.6281953,-1.0183 14.4424081,-0.8332 4.9992085,0.1852 9.4430219,0.5556 13.3314536,1.1109 2.9624473,0.3705 4.9991953,0.463 6.1102493,0.2778 1.110853,-0.1851 1.851488,-0.648 2.221909,-1.3887 0.555374,-0.9257 0.833112,-2.1292 0.833216,-3.6106 0.185055,-1.4812 0.647952,-3.2402 1.388693,-5.277 l 0.277739,-0.5555 c 0.74053,-2.5921 1.481165,-4.6289 2.221909,-6.1103 0.925686,-1.4811 0.833107,-3.8882 -0.277739,-7.2212 -3.518127,-1.8514 -8.332258,-3.1476 -14.442408,-3.8883 -5.9251779,-0.9257 -12.3131597,-1.1108 -19.163965,-0.5555 -6.850953,0.3704 -13.794411,1.4814 -20.830396,3.3329 -7.036091,1.8517 -13.424073,4.5365 -19.163964,8.0544 -5.554801,3.333 -10.183774,7.5916 -13.886931,12.776 -3.518039,5.1845 -5.277049,11.2948 -5.277034,18.3307 -1.5e-5,7.2213 1.573836,13.0538 4.721557,17.4975 3.147681,4.2588 7.036018,7.6842 11.665021,10.2764 4.8141,2.4071 9.90597,4.2587 15.275624,5.5547 5.554721,1.111 10.73917,2.222 15.553363,3.3329 4.999228,0.9258 9.165303,2.1294 12.498238,3.6106 3.3327851,1.4813 5.184374,3.6107 5.554772,6.388 0.3702376,2.7774 -0.9258747,5.0919 -3.8883406,6.9435 -2.9626184,1.6664 -6.4806374,2.9625 -10.5540674,3.8883 -3.888403,0.9258 -7.869319,1.5739 -11.942761,1.9442 -3.88839,0.1852 -6.665774,0.2777 -8.332158,0.2777 -2.777429,0 -5.462233,-0.5554 -8.05442,-1.6664 -2.592262,-1.1109 -5.091907,-2.4996 -7.498943,-4.1661 -2.407095,-1.6664 -4.814161,-3.4254 -7.221204,-5.277 -2.221929,-1.8516 -4.351256,-3.6106 -6.387988,-5.2771 -2.221923,2.4071 -3.888353,4.629 -4.999295,6.6658 -1.110965,2.0367 -2.129339,4.629 -3.055125,7.7766 m 90.542789,-77.2113 c -1.48137,10e-5 -2.592323,-0.092 -3.332863,-0.2777 -4.8142268,-0.5554 -9.99867578,-0.9257 -15.5533626,-1.111 -5.5548464,-0.185 -11.0170344,0.2779 -16.3865784,1.3887 -5.184513,1.1111 -9.998644,3.1478 -14.442408,6.1103 -4.443863,2.7774 -7.869302,6.8509 -10.276329,12.2205 0.370279,3.5181 1.758971,6.4806 4.166079,8.8876 2.592182,2.222 5.647304,4.0736 9.165375,5.5548 3.703125,1.4813 7.776621,2.6848 12.220499,3.6106 4.443749,0.9258 8.794983,1.8516 13.0537149,2.7774 4.4437359,0.9258 8.51723155,2.0368 12.2204991,3.3328 3.8882471,1.111 7.035948,2.6849 9.443113,4.7216 2.592125,2.0368 4.165976,3.8884 4.721556,5.5547 0.740532,1.6665 1.388588,4.2587 1.944171,7.7767 0.925688,4.9994 0.64795,9.5358 -0.833216,13.6092 -1.481376,3.8884 -3.888442,7.3138 -7.221204,10.2763 -3.147799,2.9626 -6.9435563,5.4623 -11.38728339,7.499 -4.44389981,2.0367 -9.16545161,3.7032 -14.16466961,4.9993 -4.814203,1.1109 -9.813493,1.9442 -14.997885,2.4996 -4.999347,0.3704 -9.62832,0.4629 -13.886931,0.2778 -5.739969,-0.3703 -11.202156,-1.4813 -16.386578,-3.3329 -5.184476,-1.8516 -10.368925,-4.1661 -15.553363,-6.9435 0.740624,-3.1476 1.38868,-6.4805 1.94417,-9.9985 0.740623,-3.518 2.036735,-6.5732 3.888341,-9.1654 4.258637,3.3329 8.609871,6.5732 13.053715,9.7208 4.443783,2.9626 9.535653,4.5364 15.275624,4.7216 2.592179,0 6.202777,-0.1852 10.831806,-0.5555 4.814075,-0.3703 9.443047,-1.2035 13.886931,-2.4996 4.628902,-1.4813 8.5172386,-3.4255 11.6650217,-5.8325 3.14761929,-2.5922 4.44373153,-6.0177 3.88834068,-10.2764 -0.5555625,-4.0734 -2.59231028,-7.1286 -6.11024958,-9.1654 -3.3329398,-2.0367 -7.4064358,-3.6105 -12.2204988,-4.7215 -4.814199,-1.2961 -9.998648,-2.407 -15.553363,-3.3329 -5.554819,-1.1109 -10.646688,-2.6847 -15.275624,-4.7215 -4.629009,-2.2219 -8.517346,-5.1844 -11.665022,-8.8877 -2.962567,-3.7031 -4.443838,-8.7949 -4.443818,-15.2756 -2e-5,-4.9992 1.388672,-9.6282 4.16608,-13.8869 2.962517,-4.2586 6.758275,-7.9618 11.387283,-11.1096 4.814095,-3.3327 10.183703,-6.0175 16.10884,-8.0544 6.110191,-2.2218 12.220434,-3.703 18.330748,-4.4438 6.1101734,-0.9257 11.9426785,-1.1108 17.4975333,-0.5555 5.7398376,0.5556 10.7391277,1.8517 14.9978857,3.8884 -1.03e-4,0.9259 -0.277842,2.1294 -0.833216,3.6106 -0.555579,1.2962 -1.018476,2.4997 -1.388693,3.6106 -0.740737,1.111 -1.203634,2.4071 -1.388693,3.8883 -10e-5,1.2962 -0.185259,2.4998 -0.555478,3.6106"
         style="font-size:277.73861694px;fill:#444444;fill-opacity:1;font-family:PlaytimeWithHotToddies3D;-inkscape-font-specification:PlaytimeWithHotToddies3D"
         id="path3029"
         inkscape:connector-curvature="0" />
      <path
         d="m 72.33405,-1457.1656 c 1.481231,0.7406 2.592184,1.2035 3.332864,1.3887 4.443769,2.0368 9.35048,2.87 14.720146,2.4996 5.36955,-0.3703 10.554,-1.4812 15.55336,-3.3328 5.18438,-1.8516 10.09109,-4.0735 14.72015,-6.6657 4.62888,-2.7774 8.51722,-5.4622 11.66502,-8.0545 7.77657,-6.4805 13.79424,-13.424 18.05301,-20.8304 4.4437,-7.5914 6.6656,-16.5716 6.66573,-26.9406 -1.3e-4,-14.2572 -4.99942,-26.3851 -14.99789,-36.3838 -2.59233,-2.7772 -5.18456,-4.9066 -7.77668,-6.3879 -2.40717,-1.4812 -4.90681,-2.6847 -7.49894,-3.6107 -2.59232,-0.9256 -5.27712,-1.6663 -8.05442,-2.2219 -2.77747,-0.7405 -5.83259,-1.6663 -9.16538,-2.7773 -3.88841,0.7407 -7.31385,1.3888 -10.276324,1.9441 -2.96261,0.5556 -5.832572,1.2963 -8.609897,2.2219 -2.592283,0.7408 -5.184508,1.8517 -7.776681,3.3329 -2.592276,1.4814 -5.554818,3.5181 -8.887636,6.1102 -4.2e-5,-2.0366 0.09254,-3.9808 0.277738,-5.8325 0.185117,-2.0366 0.277697,-4.0734 0.277739,-6.1102 l 0,-2.4997 c -5.36965,-0.5553 -10.739258,-0.6479 -16.10884,-0.2777 -5.369634,0.3704 -10.554083,1.574 -15.553362,3.6106 -0.18517,2.7775 -0.18517,5.5549 0,8.3322 0.370307,2.5923 0.555466,5.2771 0.555477,8.0544 -1.1e-5,4.9994 -1.1e-5,9.9987 0,14.9979 0.185147,4.8142 0.277727,9.7209 0.277739,14.7201 l 0,117.7612 0,1.1109 c -1.2e-5,1.2961 0.648044,2.7774 1.94417,4.4439 3.147687,1.1109 5.554753,1.9441 7.221204,2.4996 1.851568,0.7406 3.517998,1.2035 4.999295,1.3887 1.666404,0.1851 3.517993,-10e-5 5.554772,-0.5555 2.036717,-0.5555 4.90668,-1.3887 8.609898,-2.4996 l -0.833216,-26.9407 c -0.185198,-5.3696 -0.09262,-10.8318 0.277738,-16.3866 0.370279,-5.3696 0.648017,-10.7392 0.833216,-16.1088 m -23.052305,53.8813 0,-0.2777 0,-0.5555 0,-117.7612 c -1.7e-5,-4.9992 -0.0926,-9.9059 -0.277739,-14.7201 -1.7e-5,-4.9992 -1.7e-5,-9.9985 0,-14.9979 -1.7e-5,-2.0367 -0.0926,-4.0734 -0.277738,-6.1103 -0.185176,-2.2218 -0.277755,-4.3511 -0.277739,-6.388 2.777367,-0.9256 6.110227,-1.5737 9.99859,-1.9441 3.888311,-0.3702 7.40633,-0.4628 10.554068,-0.2778 -0.370355,4.444 -0.462934,8.0546 -0.277739,10.8318 0.185122,2.5924 0.833178,6.1104 1.94417,10.5541 2.407027,-3.1476 4.721514,-5.6472 6.943466,-7.4989 2.40702,-2.0367 5.369562,-4.0734 8.887636,-6.1103 3.703123,-2.0366 7.406301,-3.4253 11.109544,-4.1661 3.703116,-0.7405 7.498866,-1.4811 11.387286,-2.2219 3.33278,1.1111 6.29532,1.9443 8.88763,2.4997 2.59214,0.5556 4.99921,1.2962 7.22121,2.2219 4.0734,1.4814 7.684,3.7033 10.8318,6.6657 3.33276,2.9627 6.11014,6.2955 8.33216,9.9986 2.40696,3.7033 4.16596,7.6842 5.27704,11.9428 1.29599,4.2587 1.94405,8.4248 1.94417,12.4982 -1.2e-4,9.4432 -2.03687,17.5902 -6.11025,24.441 -3.88845,6.6658 -9.35064,12.9612 -16.38658,18.8862 -2.77748,2.4071 -6.2955,4.9068 -10.55407,7.499 -4.25874,2.407 -8.79513,4.5364 -13.60919,6.388 -4.62905,1.6664 -9.443178,2.6848 -14.44241,3.0551 -4.814189,0.3703 -9.258003,-0.4629 -13.331453,-2.4997 -0.555522,0 -1.018419,-0.092 -1.388693,-0.2777 -1.110997,-0.5555 -1.944212,-0.9258 -2.499648,-1.111 -0.370359,-0.3703 -0.833256,-0.648 -1.388693,-0.8332 -0.555516,-0.3703 -1.203573,-0.5554 -1.94417,-0.5555 -0.740674,-0.1851 -1.759048,-0.3703 -3.055125,-0.5554 l 0,3.0551 c -3.5e-5,6.1102 -0.277773,12.2205 -0.833216,18.3307 -0.370352,6.2954 -0.462931,12.4983 -0.277739,18.6085 l 0.833216,23.0523 c -2.221941,0.7406 -3.98095,1.2035 -5.277034,1.3887 -1.296141,0.1851 -2.499674,0.1851 -3.610602,0 -1.110978,-0.1852 -2.314511,-0.5555 -3.610602,-1.1109 -1.110975,-0.5556 -2.684825,-1.2036 -4.721556,-1.9442 m 39.716622,-81.3774 c -5.925141,1.4813 -11.20217,1.2036 -15.831101,-0.8332 -0.370359,-5.9251 -0.555518,-12.0353 -0.555477,-18.3308 -4.1e-5,-6.2953 0.462856,-12.4056 1.388693,-18.3307 0.740593,-4.9992 2.592182,-8.795 5.554772,-11.3873 2.962495,-2.7773 6.387934,-4.6289 10.276329,-5.5548 4.073438,-1.1109 8.239513,-1.296 12.498237,-0.5555 4.44374,0.5556 8.51724,1.7591 12.2205,3.6106 3.88825,1.6666 7.03596,3.7959 9.44311,6.388 2.40698,2.5923 3.61051,5.4623 3.6106,8.6099 -9e-5,5.5549 -1.11104,10.369 -3.33286,14.4424 -2.03684,4.0736 -4.81422,7.5916 -8.33216,10.5541 -3.5181,2.7774 -7.5916,5.0919 -12.2205,6.9435 -4.62904,1.8516 -9.535751,3.3329 -14.720143,4.4438 m 1.110955,5.5548 c 5.184391,-1.2961 10.368838,-2.9626 15.553358,-4.9993 5.18438,-2.0368 9.81335,-4.629 13.88694,-7.7767 4.0734,-3.3328 7.31368,-7.3138 9.72085,-11.9428 2.59212,-4.8141 3.88824,-10.554 3.88834,-17.2198 -10e-5,-7.9617 -2.59233,-13.7017 -7.77668,-17.2198 -5.18455,-3.7031 -11.20221,-5.7398 -18.05301,-6.1102 -6.85096,-0.3702 -13.701837,0.5556 -20.552662,2.7774 -6.665775,2.0368 -11.572485,4.8142 -14.720146,8.3321 -1.666471,1.8517 -2.870003,5.1846 -3.610602,9.9986 -0.555514,4.8142 -0.925831,9.9987 -1.110955,15.5534 -0.185194,5.3696 -0.185194,10.5541 0,15.5533 0.185124,4.8142 0.462862,8.2397 0.833216,10.2764 3.703142,2.0367 7.221161,3.2403 10.554067,3.6106 3.517973,0.3703 7.31373,0.093 11.387284,-0.8332"
         style="font-size:277.73861694px;fill:#444444;fill-opacity:1;font-family:PlaytimeWithHotToddies3D;-inkscape-font-specification:PlaytimeWithHotToddies3D"
         id="path3031"
         inkscape:connector-curvature="0" />
      <path
         d="m 261.96877,-1554.6518 0,-1.6665 c -0.1852,-1.4811 -0.37036,-2.8698 -0.55548,-4.1661 -0.1852,-1.296 -0.46293,-2.5921 -0.83321,-3.8883 -1.111,-3.8882 -2.68485,-6.6656 -4.72156,-8.3322 -2.03678,-1.6663 -4.35127,-2.6846 -6.94346,-3.0551 -2.4071,-0.3702 -4.99932,-0.3702 -7.77668,0 -2.77741,0.1853 -5.55479,0.2779 -8.33216,0.2778 -0.37033,2.5923 -0.64807,5.1845 -0.83322,7.7766 -0.18517,2.5924 -0.27775,5.1846 -0.27774,7.7767 -1e-5,17.9605 -0.18517,35.8284 -0.55547,53.6036 -0.18517,17.5901 -0.27775,35.3654 -0.27774,53.3258 l 0,2.4996 c 1.66642,0.1852 3.9809,0.4629 6.94346,0.8333 3.14769,0.3703 6.29539,0.4628 9.44312,0.2777 3.14767,0 6.01763,-0.5555 8.60989,-1.6664 2.59219,-0.9258 4.25862,-2.5923 4.9993,-4.9993 0.74059,-2.2219 1.11091,-5.9251 1.11095,-11.1096 0.18512,-5.1844 0.2777,-10.6466 0.27774,-16.3866 -4e-5,-5.5547 -0.0926,-10.9243 -0.27774,-16.1088 -4e-5,-5.1844 -4e-5,-9.2579 0,-12.2205 1.66639,-3.518 3.8883,-7.3137 6.66573,-11.3873 2.96249,-4.0734 6.11019,-7.8692 9.44311,-11.3873 3.51796,-3.5179 7.12856,-6.4804 10.83181,-8.8876 3.88827,-2.5921 7.68402,-4.0734 11.38728,-4.4438 2.22183,-0.3702 4.44373,-0.3702 6.66573,0 2.40698,0.1852 4.81404,0.1852 7.2212,0 0.74054,-1.6664 1.3886,-3.5179 1.94417,-5.5548 0.74054,-2.2218 1.20344,-4.4437 1.3887,-6.6657 0.18506,-2.2218 -1e-4,-4.3511 -0.55548,-6.388 -0.37042,-2.0366 -1.20363,-3.7956 -2.49965,-5.277 -6.11034,-0.9257 -11.47995,-1.296 -16.10884,-1.111 -4.62905,0.1853 -8.98028,1.0185 -13.05371,2.4997 -3.88841,1.2962 -7.68416,3.2404 -11.38729,5.8325 -3.70323,2.5923 -7.68415,5.9252 -11.94276,9.9986 m 37.77245,1.1109 c -4.62905,0.3704 -9.16544,2.0369 -13.60919,4.9993 -4.44388,2.9626 -8.60995,6.4807 -12.49824,10.5541 -3.70323,4.0736 -7.12867,8.4248 -10.27632,13.0537 -2.96259,4.4439 -5.27708,8.4248 -6.94347,11.9427 l 0,0.5555 c -4e-5,2.5923 -4e-5,6.5732 0,11.9428 0.18512,5.3696 0.2777,11.017 0.27774,16.942 -4e-5,5.9252 -0.0926,11.2948 -0.27774,16.1089 -0.1852,4.8141 -0.55551,8.0544 -1.11095,9.7208 -0.37036,0.9258 -1.38873,1.5739 -3.05513,1.9442 -1.66646,0.3703 -3.61063,0.6481 -5.83251,0.8332 -2.03677,0 -4.07352,-0.093 -6.11025,-0.2777 -1.85161,-0.1852 -3.14772,-0.2778 -3.88834,-0.2778 -2e-5,-17.4049 0.0926,-34.8098 0.27774,-52.2148 0.3703,-17.4049 0.55546,-34.8098 0.55548,-52.2149 -2e-5,-1.6663 -2e-5,-3.3327 0,-4.9993 0.18514,-1.6663 0.3703,-3.4253 0.55547,-5.277 0.74062,1e-4 1.38868,1e-4 1.94417,0 0.55546,-0.185 1.20352,-0.2776 1.94417,-0.2777 4.07348,-0.3702 7.1286,0.1852 9.16538,1.6664 2.03671,1.4814 3.42541,3.5181 4.16608,6.1102 0.92576,2.4072 1.38865,5.1846 1.38869,8.3322 -4e-5,2.9626 0.0925,5.8326 0.27774,8.6099 l 4.16608,0 c 4.25861,-4.0734 8.05437,-7.5914 11.38728,-10.5541 3.51797,-3.1476 7.12857,-5.6472 10.83181,-7.4989 3.88827,-1.8515 8.05435,-3.055 12.49823,-3.6106 4.44374,-0.5554 9.72077,-0.3702 15.83111,0.5555 0.74054,1.6665 0.83312,3.981 0.27773,6.9434 -0.37041,2.7775 -0.8333,4.9068 -1.38869,6.388 -1.85168,0.1853 -3.61069,0.1853 -5.27703,0 -1.66652,-0.185 -3.42553,-0.185 -5.27704,0"
         style="font-size:277.73861694px;fill:#444444;fill-opacity:1;font-family:PlaytimeWithHotToddies3D;-inkscape-font-specification:PlaytimeWithHotToddies3D"
         id="path3035"
         inkscape:connector-curvature="0" />
      <path
         d="m 355.41916,-1497.7154 c 3.8883,0 9.07274,-0.093 15.55336,-0.2778 6.48051,-0.1851 13.23881,-0.5554 20.27492,-1.1109 7.03596,-0.5555 13.70168,-1.2961 19.99718,-2.2219 6.48047,-0.9258 11.57234,-2.2219 15.27562,-3.8884 2.40696,-1.1109 4.25855,-2.7773 5.55477,-4.9993 1.296,-2.407 2.2218,-4.9992 2.77739,-7.7766 0.55536,-2.9625 0.74052,-5.9251 0.55548,-8.8877 -1.2e-4,-2.9625 -0.0927,-5.5547 -0.27774,-7.7767 -0.74075,-8.1469 -2.87008,-15.0903 -6.38799,-20.8304 -3.51813,-5.7398 -7.96194,-10.2762 -13.33145,-13.6092 -5.18455,-3.3327 -11.10963,-5.462 -17.77527,-6.3879 -6.48065,-0.9257 -13.14637,-0.648 -19.99719,0.8332 -6.66577,1.4814 -13.23892,4.1662 -19.71944,8.0544 -6.4806,3.8884 -12.22052,8.8877 -17.21979,14.9979 -5.18447,6.2955 -9.25797,13.3315 -12.2205,21.1081 -2.77739,7.5916 -4.16609,15.5534 -4.16608,23.8855 -1e-5,14.998 3.24028,27.311 9.72085,36.9393 6.66571,9.4431 14.99786,16.2014 24.99648,20.2749 10.1837,4.2586 21.29323,5.6473 33.32863,4.1661 12.03526,-1.4813 23.60769,-5.74 34.71733,-12.776 2.40696,-1.4813 5.18434,-3.7032 8.33216,-6.6657 3.33274,-3.1477 5.55465,-5.9251 6.66572,-8.3322 -1.85171,-3.518 -4.07362,-7.2212 -6.66572,-11.1095 -1.48139,-2.0368 -2.87008,-3.9809 -4.16608,-5.8325 -1.29623,-1.8516 -3.2404,-3.0551 -5.83251,-3.6106 -2.22202,2.4071 -4.5365,4.8141 -6.94347,7.2212 -2.22201,2.4071 -4.62907,4.5364 -7.2212,6.3879 -2.59232,1.8517 -5.3697,3.4255 -8.33216,4.7216 -2.96263,1.2961 -6.29549,2.0368 -9.99859,2.2219 -3.88841,0.3703 -7.96191,0.1852 -12.2205,-0.5555 -4.07356,-0.7406 -7.86932,-1.9441 -11.38728,-3.6106 -3.33291,-1.6664 -6.29546,-3.8883 -8.88764,-6.6657 -2.40711,-2.7774 -3.98096,-6.1102 -4.72156,-9.9986 -0.18519,-0.9257 -0.37035,-1.6664 -0.55547,-2.2219 -4e-5,-0.5554 0.0925,-1.1109 0.27774,-1.6664 m 71.37882,11.1095 0.27774,0.2778 c 3.14759,4.2586 6.01755,8.7025 8.6099,13.3314 -1.11107,1.4813 -2.96266,3.4255 -5.55478,5.8325 -2.59233,2.2219 -4.5365,3.7958 -5.83251,4.7216 -10.55416,6.6657 -21.47853,10.6466 -32.77315,11.9427 -11.10961,1.2961 -21.29335,0.093 -30.55125,-3.6106 -9.07283,-3.8883 -16.57177,-10.1837 -22.49683,-18.8862 -5.73995,-8.8876 -8.60991,-20.0897 -8.6099,-33.6064 -1e-5,-7.5914 1.2961,-14.9052 3.88834,-21.9413 2.77737,-7.2211 6.57313,-13.7943 11.38729,-19.7195 4.99926,-6.1101 11.01692,-11.1094 18.05301,-14.9978 7.03599,-3.8883 14.25719,-6.2028 21.66361,-6.9435 7.59145,-0.9257 14.81264,-0.092 21.66361,2.4996 6.85079,2.5924 12.59072,7.4991 17.2198,14.7202 1.66632,2.7775 2.96243,5.9252 3.88834,9.4431 1.11084,3.5181 1.7589,7.1287 1.94417,10.8318 0.3702,3.7033 0.27762,7.4064 -0.27774,11.1095 -0.37043,3.5181 -1.20365,6.7584 -2.49965,9.7209 -0.55558,1.2962 -2.59233,2.4071 -6.11025,3.3329 -3.51812,0.7407 -7.86935,1.4813 -13.05371,2.2219 -4.99938,0.5555 -10.46157,1.0184 -16.38658,1.3887 -5.74,0.3703 -11.29477,0.7407 -16.66432,1.1109 -5.18451,0.1852 -9.7209,0.3704 -13.60919,0.5555 -3.70322,0 -6.11029,0 -7.22121,0 l -3.33286,2.2219 c -0.37035,1.6665 -0.64809,3.0552 -0.83322,4.1661 -3e-5,1.111 0.18513,2.4997 0.55548,4.1661 0.92576,4.9993 2.96251,9.258 6.11025,12.7759 3.14766,3.3329 6.75826,6.0177 10.83181,8.0545 4.2586,1.8516 8.70242,3.1477 13.33145,3.8883 4.62891,0.7407 8.98015,0.9258 13.05372,0.5555 7.40628,-0.5555 13.70168,-2.6848 18.88622,-6.388 5.18436,-3.7032 9.99849,-7.9618 14.44241,-12.776 m -16.66432,-40.8276 c -9e-5,1.1111 -0.18525,2.0369 -0.55547,2.7774 -1.85168,0.3704 -5.55486,0.7407 -11.10955,1.111 -5.36969,0.3704 -11.01703,0.7407 -16.94205,1.1109 -5.92515,0.1853 -11.29476,0.3704 -16.10884,0.5555 -4.81418,0.1852 -7.40641,0.1852 -7.77669,0 -0.55551,10e-5 -1.01841,-0.1851 -1.38869,-0.5555 0.92576,-6.1101 2.96251,-11.202 6.11025,-15.2756 3.14766,-4.2586 6.75826,-7.4988 10.83181,-9.7208 4.07344,-2.2219 8.33209,-3.4254 12.77597,-3.6106 4.62891,-0.1851 8.79498,0.5555 12.49824,2.2219 3.7031,1.6665 6.66564,4.3513 8.88764,8.0544 2.22181,3.5181 3.14761,7.9619 2.77738,13.3314 m 5.55478,0.5555 c 0.55537,-6.6656 -0.55558,-12.2204 -3.33287,-16.6643 -2.77748,-4.6289 -6.48065,-7.9617 -11.10954,-9.9986 -4.4439,-2.2218 -9.44319,-3.1476 -14.99789,-2.7774 -5.55483,0.1853 -10.92444,1.6666 -16.10884,4.4438 -4.99934,2.5924 -9.35057,6.4807 -13.05371,11.6651 -3.70322,5.1845 -5.92513,11.7576 -6.66573,19.7194 0.92576,1.111 1.6664,2.0368 2.22191,2.7774 0.7406,0.5555 1.85155,1.0184 3.33286,1.3887 0.55544,0.1852 2.22187,0.2778 4.9993,0.2777 2.9625,-0.1851 6.38794,-0.3702 10.27633,-0.5555 4.07344,-0.1851 8.33209,-0.3702 12.77597,-0.5554 4.62891,-0.3703 8.88756,-0.648 12.77598,-0.8332 4.07342,-0.3703 7.49886,-0.648 10.27633,-0.8333 2.96245,-0.3702 4.72146,-0.648 5.27703,-0.8332 1.29602,-1.1109 2.12924,-2.2218 2.49965,-3.3328 0.37022,-1.1109 0.64796,-2.407 0.83322,-3.8884"
         style="font-size:277.73861694px;fill:#444444;fill-opacity:1;font-family:PlaytimeWithHotToddies3D;-inkscape-font-specification:PlaytimeWithHotToddies3D"
         id="path3037"
         inkscape:connector-curvature="0" />
      <path
         d="m 694.538,-1571.0384 c 0.18499,4.9994 0.37015,11.017 0.55548,18.053 0.37015,7.0361 0.74046,14.5351 1.11095,22.4968 0.55531,7.7768 1.11078,15.8312 1.66643,24.1633 0.55531,8.3322 1.20336,16.294 1.94417,23.8855 0.92562,7.5915 1.944,14.535 3.05513,20.8304 1.11077,6.2954 2.49947,11.4799 4.16608,15.5534 5.18427,0.9257 10.09098,1.0183 14.72014,0.2777 4.81394,-0.5555 9.62807,-1.8516 14.44241,-3.8883 l 0,-1.9442 c -2.1e-4,-3.3329 -0.27795,-6.6657 -0.83321,-9.9986 -0.55569,-3.3329 -1.01859,-6.6657 -1.3887,-9.9986 -0.37052,-3.7032 -0.74084,-7.4989 -1.11095,-11.3873 -0.18537,-3.8883 -0.46311,-7.684 -0.83322,-11.3873 -0.926,-12.7759 -2.03695,-25.4593 -3.33286,-38.0502 -1.29632,-12.7758 -2.22211,-25.5518 -2.77739,-38.3279 -0.55567,-10.9242 -0.83341,-21.756 -0.83321,-32.4954 0.18496,-10.7391 0.55528,-21.5709 1.11095,-32.4954 l 0,-0.8332 c -2e-4,-2.0366 -0.55567,-3.5179 -1.66643,-4.4439 -1.11115,-2.4068 -3.05532,-4.351 -5.83251,-5.8325 -2.77758,-1.481 -5.8327,-2.4994 -9.16538,-3.0551 -3.33304,-0.5553 -6.57332,-0.6479 -9.72085,-0.2777 -3.14787,0.3705 -5.64752,1.1111 -7.49894,2.2219 -1.6666,3.333 -3.14787,6.7585 -4.44382,10.2763 -1.29627,3.3331 -2.68496,6.6659 -4.16608,9.9986 -7.77683,18.1457 -15.64608,36.2913 -23.60778,54.4368 -7.77681,17.9605 -15.18316,36.1987 -22.21909,54.7145 -3.33297,-9.2579 -6.85099,-18.3307 -10.55407,-27.2184 -3.70327,-8.8875 -7.40645,-17.8678 -11.10954,-26.9407 -2.96263,-7.7765 -5.8326,-15.4606 -8.6099,-23.0523 -2.77746,-7.5913 -5.55485,-15.2754 -8.33216,-23.0523 -0.55555,-1.8514 -1.11102,-3.8881 -1.66643,-6.1102 -0.55555,-2.4069 -1.11102,-4.7214 -1.66643,-6.9435 -0.55555,-2.2217 -1.29618,-4.351 -2.22191,-6.388 -0.92586,-2.0365 -2.12939,-3.703 -3.6106,-4.9993 -2.03681,-0.3701 -4.44388,-0.7404 -7.2212,-1.1109 -2.59229,-0.3701 -5.18451,-0.5553 -7.77669,-0.5555 -2.59227,2e-4 -5.18449,0.2779 -7.77668,0.8332 -2.4071,0.3705 -4.53643,1.2037 -6.38799,2.4997 -1.66646,5.1846 -3.24031,12.7761 -4.72155,22.7745 -1.4813,9.9988 -2.86999,21.2935 -4.16608,33.8841 -1.11098,12.4058 -2.12935,25.4595 -3.05513,39.1612 -0.92581,13.7018 -1.66645,26.7555 -2.22191,39.1611 -0.55549,12.4057 -1.01839,23.5153 -1.38869,33.3287 -0.37033,9.8134 -0.46291,17.1272 -0.27774,21.9413 0.55546,0.1852 1.01836,0.3703 1.3887,0.5555 0.55545,0.1852 1.01835,0.2777 1.38869,0.2777 l 1.38869,0.2778 c 9.44308,1.6664 19.34908,2.4996 29.71803,2.4996 0.74059,-5.5548 1.01833,-11.0169 0.83322,-16.3866 -5e-5,-5.3696 0.18511,-10.8317 0.55548,-16.3865 0.37026,-6.2954 0.83316,-12.5908 1.38869,-18.8863 0.55542,-6.2953 0.92574,-12.6833 1.11096,-19.1639 0.37026,-8.3321 0.74057,-16.4791 1.11095,-24.441 0.55542,-8.1469 1.20348,-16.3865 1.94417,-24.7188 0.92574,2.9627 2.31443,7.4065 4.16608,13.3315 2.03668,5.74 4.25859,12.128 6.66573,19.164 2.59215,7.0361 5.27695,14.3499 8.05442,21.9413 2.7773,7.5916 5.46211,14.6276 8.05442,21.1081 2.77729,6.4806 5.27694,12.0354 7.49894,16.6644 2.40697,4.629 4.35114,7.5915 5.83251,8.8876 0.55538,0.5555 2.03665,0.8332 4.44382,0.8332 2.40696,-0.1851 4.99918,-0.4629 7.77668,-0.8332 2.77727,-0.5555 5.36949,-1.0184 7.77668,-1.3887 2.5921,-0.5555 4.16596,-0.9258 4.72156,-1.111 1.11083,-1.1109 2.86983,-4.2586 5.27703,-9.4431 2.40694,-5.3695 5.18432,-11.6649 8.33216,-18.8862 3.14756,-7.2211 6.38784,-14.9052 9.72085,-23.0523 3.33271,-8.3321 6.38783,-16.0162 9.16537,-23.0523 2.96239,-7.2211 5.46204,-13.3314 7.49895,-18.3307 2.03658,-5.1844 3.24011,-8.2395 3.6106,-9.1654 m -65.26858,99.7081 c -1.66653,-1.8515 -3.79586,-5.6473 -6.38798,-11.3872 -2.40717,-5.7399 -5.18455,-12.5908 -8.33216,-20.5527 -2.96263,-7.9618 -6.11033,-16.4791 -9.44312,-25.552 -3.33293,-9.2578 -6.48064,-18.1454 -9.44311,-26.6629 -2.96261,-8.5172 -5.64741,-16.2938 -8.05442,-23.33 -2.40712,-7.2211 -4.25871,-12.6833 -5.55477,-16.3866 -0.92585,12.7761 -1.85164,25.5521 -2.77739,38.3279 -0.92584,12.7761 -1.5739,25.5521 -1.94417,38.328 -0.18521,6.2954 -0.55552,12.5908 -1.11095,18.8862 -0.55553,6.2954 -1.01843,12.6834 -1.38869,19.164 -0.18521,4.629 -0.27779,9.1654 -0.27774,13.6092 0.18511,4.4438 -5e-5,8.9802 -0.55548,13.6091 -4.07354,-0.3703 -8.14704,-0.648 -12.2205,-0.8332 -3.88837,-0.3703 -7.77671,-0.9258 -11.66502,-1.6664 l -1.11096,0 c 0.18514,-5.5548 0.46288,-13.2389 0.83322,-23.0523 0.55545,-9.9986 1.20351,-21.0155 1.94417,-33.0509 0.92577,-12.0353 1.85156,-24.5335 2.77739,-37.4947 1.11092,-12.961 2.22188,-25.2741 3.33286,-36.9392 1.29608,-11.6649 2.49961,-22.0338 3.6106,-31.1068 1.29608,-9.2578 2.59219,-16.1086 3.88834,-20.5526 1.29608,-0.5553 2.86993,-0.9256 4.72156,-1.111 2.0367,-0.185 4.07345,-0.185 6.11025,0 2.0367,2e-4 4.07344,0.093 6.11025,0.2778 2.03669,0.1853 3.70312,0.3705 4.99929,0.5554 0.74058,0.926 1.38863,2.3147 1.94417,4.1661 0.74058,1.8518 1.38863,3.8885 1.94417,6.1103 0.55542,2.0369 1.01831,4.0736 1.3887,6.1102 0.55541,1.8518 1.11088,3.4256 1.66643,4.7216 2.59216,7.7768 5.27696,15.5535 8.05442,23.33 2.77731,7.7768 5.73985,15.5535 8.88763,23.3301 4.44373,11.4799 8.98013,22.8672 13.6092,34.1618 4.62887,11.1096 8.9801,22.4969 13.05371,34.1619 7.77656,-21.2933 15.92355,-41.9385 24.441,-61.9358 8.70233,-20.1822 17.49738,-40.6422 26.38517,-61.3802 1.48111,-3.1475 2.77722,-6.2026 3.88834,-9.1654 1.29595,-3.1475 2.68464,-6.2952 4.16608,-9.4431 1.4811,-0.7404 3.42527,-1.0182 5.83251,-0.8332 2.40689,2e-4 4.81395,0.2779 7.2212,0.8332 2.40689,0.5557 4.53621,1.3889 6.38799,2.4997 2.03656,0.926 3.24009,1.9443 3.6106,3.0551 l 0.83322,1.1109 0,0.5555 0,1.111 c -0.55567,10.9245 -0.92599,21.7563 -1.11096,32.4954 -1.9e-4,10.7394 0.27755,21.5712 0.83322,32.4954 0.55528,12.9613 1.48108,25.8298 2.77739,38.6057 1.29591,12.776 2.40687,25.552 3.33286,38.3279 0.37012,3.7032 0.64786,7.499 0.83322,11.3873 0.37011,3.8884 0.74043,7.6841 1.11095,11.3873 0.37012,2.9625 0.74043,5.9251 1.11095,8.8876 0.55528,2.7774 0.9256,5.6474 1.11096,8.6099 -2.96275,1.111 -6.20303,1.8516 -9.72085,2.2219 -3.51822,0.5555 -6.85108,0.6481 -9.99859,0.2778 -1.85178,-5.9251 -3.42563,-14.7202 -4.72156,-26.3852 -1.29629,-11.8502 -2.40724,-24.7187 -3.33286,-38.6057 -0.92597,-13.8868 -1.66661,-27.7737 -2.22191,-41.6608 -0.55565,-14.0719 -1.20371,-28.0514 -1.94417,-41.9385 l -4.72156,10.2763 c -1.11112,2.5924 -1.85175,5.1846 -2.22191,7.7767 -0.37048,2.5924 -1.01854,5.1846 -1.94417,7.7767 -0.7408,1.8517 -2.12949,5.3697 -4.16608,10.5541 -2.0369,5.1845 -4.44397,11.2022 -7.2212,18.053 -2.77754,6.8509 -5.74008,14.1647 -8.88764,21.9413 -3.14784,7.5916 -6.20296,14.8128 -9.16537,21.6636 -2.96268,6.851 -5.5549,12.776 -7.77668,17.7753 -2.22203,4.9993 -3.79589,8.2396 -4.72156,9.7209 -2.96266,0.5555 -6.01778,1.1109 -9.16537,1.6664 -3.14782,0.5555 -6.29552,0.8332 -9.44312,0.8332 l 0,0.2777"
         style="font-size:277.73861694px;fill:#444444;fill-opacity:1;font-family:PlaytimeWithHotToddies3D;-inkscape-font-specification:PlaytimeWithHotToddies3D"
         id="path3039"
         inkscape:connector-curvature="0" />
      <path
         d="m 781.24887,-1497.7154 c 3.8883,0 9.07275,-0.093 15.55336,-0.2778 6.48051,-0.1851 13.23881,-0.5554 20.27492,-1.1109 7.03596,-0.5555 13.70168,-1.2961 19.99718,-2.2219 6.48047,-0.9258 11.57234,-2.2219 15.27562,-3.8884 2.40696,-1.1109 4.25855,-2.7773 5.55478,-4.9993 1.29599,-2.407 2.22179,-4.9992 2.77738,-7.7766 0.55536,-2.9625 0.74052,-5.9251 0.55548,-8.8877 -1.2e-4,-2.9625 -0.0927,-5.5547 -0.27774,-7.7767 -0.74075,-8.1469 -2.87008,-15.0903 -6.38799,-20.8304 -3.51813,-5.7398 -7.96194,-10.2762 -13.33145,-13.6092 -5.18455,-3.3327 -11.10963,-5.462 -17.77527,-6.3879 -6.48064,-0.9257 -13.14636,-0.648 -19.99718,0.8332 -6.66578,1.4814 -13.23892,4.1662 -19.71945,8.0544 -6.4806,3.8884 -12.22052,8.8877 -17.21979,14.9979 -5.18447,6.2955 -9.25797,13.3315 -12.2205,21.1081 -2.77739,7.5916 -4.16608,15.5534 -4.16608,23.8855 0,14.998 3.24028,27.311 9.72085,36.9393 6.66571,9.4431 14.99786,16.2014 24.99648,20.2749 10.1837,4.2586 21.29323,5.6473 33.32863,4.1661 12.03526,-1.4813 23.60769,-5.74 34.71733,-12.776 2.40696,-1.4813 5.18434,-3.7032 8.33216,-6.6657 3.33274,-3.1477 5.55465,-5.9251 6.66573,-8.3322 -1.85172,-3.518 -4.07362,-7.2212 -6.66573,-11.1095 -1.48139,-2.0368 -2.87008,-3.9809 -4.16608,-5.8325 -1.29623,-1.8516 -3.24039,-3.0551 -5.83251,-3.6106 -2.22201,2.4071 -4.5365,4.8141 -6.94347,7.2212 -2.222,2.4071 -4.62907,4.5364 -7.2212,6.3879 -2.59232,1.8517 -5.3697,3.4255 -8.33216,4.7216 -2.96263,1.2961 -6.29549,2.0368 -9.99859,2.2219 -3.88841,0.3703 -7.96191,0.1852 -12.2205,-0.5555 -4.07356,-0.7406 -7.86931,-1.9441 -11.38728,-3.6106 -3.33291,-1.6664 -6.29545,-3.8883 -8.88764,-6.6657 -2.40711,-2.7774 -3.98096,-6.1102 -4.72155,-9.9986 -0.1852,-0.9257 -0.37036,-1.6664 -0.55548,-2.2219 -4e-5,-0.5554 0.0925,-1.1109 0.27774,-1.6664 m 71.37882,11.1095 0.27774,0.2778 c 3.14759,4.2586 6.01756,8.7025 8.6099,13.3314 -1.11107,1.4813 -2.96266,3.4255 -5.55477,5.8325 -2.59234,2.2219 -4.53651,3.7958 -5.83252,4.7216 -10.55416,6.6657 -21.47853,10.6466 -32.77315,11.9427 -11.10961,1.2961 -21.29335,0.093 -30.55125,-3.6106 -9.07283,-3.8883 -16.57176,-10.1837 -22.49683,-18.8862 -5.73994,-8.8876 -8.60991,-20.0897 -8.6099,-33.6064 -10e-6,-7.5914 1.29611,-14.9052 3.88835,-21.9413 2.77736,-7.2211 6.57312,-13.7943 11.38728,-19.7195 4.99926,-6.1101 11.01693,-11.1094 18.05301,-14.9978 7.03599,-3.8883 14.25719,-6.2028 21.66361,-6.9435 7.59145,-0.9257 14.81265,-0.092 21.66361,2.4996 6.85079,2.5924 12.59072,7.4991 17.2198,14.7202 1.66632,2.7775 2.96243,5.9252 3.88834,9.4431 1.11084,3.5181 1.7589,7.1287 1.94417,10.8318 0.3702,3.7033 0.27763,7.4064 -0.27774,11.1095 -0.37043,3.5181 -1.20364,6.7584 -2.49965,9.7209 -0.55558,1.2962 -2.59233,2.4071 -6.11025,3.3329 -3.51812,0.7407 -7.86935,1.4813 -13.05371,2.2219 -4.99938,0.5555 -10.46157,1.0184 -16.38658,1.3887 -5.74,0.3703 -11.29477,0.7407 -16.66432,1.1109 -5.1845,0.1852 -9.7209,0.3704 -13.60919,0.5555 -3.70322,0 -6.11029,0 -7.2212,0 l -3.33287,2.2219 c -0.37035,1.6665 -0.64809,3.0552 -0.83321,4.1661 -3e-5,1.111 0.18512,2.4997 0.55547,4.1661 0.92577,4.9993 2.96251,9.258 6.11025,12.7759 3.14767,3.3329 6.75827,6.0177 10.83181,8.0545 4.25861,1.8516 8.70242,3.1477 13.33145,3.8883 4.62891,0.7407 8.98015,0.9258 13.05372,0.5555 7.40628,-0.5555 13.70168,-2.6848 18.88622,-6.388 5.18436,-3.7032 9.99849,-7.9618 14.44241,-12.776 m -16.66432,-40.8276 c -9e-5,1.1111 -0.18525,2.0369 -0.55547,2.7774 -1.85168,0.3704 -5.55486,0.7407 -11.10955,1.111 -5.36968,0.3704 -11.01703,0.7407 -16.94205,1.1109 -5.92515,0.1853 -11.29476,0.3704 -16.10884,0.5555 -4.81418,0.1852 -7.40641,0.1852 -7.77668,0 -0.55552,10e-5 -1.01842,-0.1851 -1.3887,-0.5555 0.92576,-6.1101 2.96251,-11.202 6.11025,-15.2756 3.14766,-4.2586 6.75826,-7.4988 10.83181,-9.7208 4.07344,-2.2219 8.33209,-3.4254 12.77598,-3.6106 4.6289,-0.1851 8.79498,0.5555 12.49823,2.2219 3.7031,1.6665 6.66564,4.3513 8.88764,8.0544 2.22182,3.5181 3.14761,7.9619 2.77738,13.3314 m 5.55478,0.5555 c 0.55538,-6.6656 -0.55558,-12.2204 -3.33287,-16.6643 -2.77747,-4.6289 -6.48065,-7.9617 -11.10954,-9.9986 -4.4439,-2.2218 -9.44319,-3.1476 -14.99789,-2.7774 -5.55483,0.1853 -10.92444,1.6666 -16.10884,4.4438 -4.99934,2.5924 -9.35057,6.4807 -13.05371,11.6651 -3.70322,5.1845 -5.92512,11.7576 -6.66573,19.7194 0.92576,1.111 1.6664,2.0368 2.22191,2.7774 0.7406,0.5555 1.85156,1.0184 3.33286,1.3887 0.55544,0.1852 2.22187,0.2778 4.9993,0.2777 2.9625,-0.1851 6.38794,-0.3702 10.27633,-0.5555 4.07344,-0.1851 8.3321,-0.3702 12.77597,-0.5554 4.62891,-0.3703 8.88757,-0.648 12.77598,-0.8332 4.07342,-0.3703 7.49886,-0.648 10.27633,-0.8333 2.96245,-0.3702 4.72146,-0.648 5.27703,-0.8332 1.29602,-1.1109 2.12924,-2.2218 2.49965,-3.3328 0.37022,-1.1109 0.64796,-2.407 0.83322,-3.8884"
         style="font-size:277.73861694px;fill:#444444;fill-opacity:1;font-family:PlaytimeWithHotToddies3D;-inkscape-font-specification:PlaytimeWithHotToddies3D"
         id="path3041"
         inkscape:connector-curvature="0" />
      <path
         d="m 908.30564,-1489.661 c -4.25868,0.5555 -7.7767,2.3145 -10.55407,5.277 -2.59224,2.9626 -4.35125,6.2955 -5.27703,9.9986 -0.74065,3.7032 -0.46291,7.499 0.83322,11.3873 1.48125,3.7032 4.25864,6.6657 8.33216,8.8876 4.44379,2.4071 8.51728,3.0552 12.22049,1.9442 3.70315,-0.9258 6.75827,-2.7774 9.16538,-5.5548 2.59218,-2.9625 4.35119,-6.3879 5.27703,-10.2763 0.92575,-4.0735 0.92575,-7.8692 0,-11.3873 -0.92584,-3.518 -3.05517,-6.2954 -6.38799,-8.3321 -3.14774,-2.0368 -7.68413,-2.6848 -13.60919,-1.9442 m 0.55548,5.5548 c 3.51799,-0.5555 6.57311,0.1852 9.16537,2.2219 2.77735,2.0367 4.53636,4.5364 5.27704,7.4989 0.92575,2.9626 0.64801,6.1103 -0.83322,9.4431 -1.48131,3.1477 -4.44386,5.5548 -8.88763,7.2212 -3.51806,1.2961 -6.66576,0.8333 -9.44312,-1.3887 -2.77741,-2.407 -4.629,-5.277 -5.55477,-8.6099 -0.92581,-3.518 -0.74066,-6.9434 0.55548,-10.2763 1.48125,-3.3328 4.72153,-5.3696 9.72085,-6.1102 m 0.27774,-22.2191 c 1.6664,0.3703 3.33283,0.5555 4.99929,0.5555 1.85156,-0.1852 3.70314,-0.3703 5.55478,-0.5555 0.37027,-2.5922 0.64801,-5.0918 0.83321,-7.499 0.37028,-2.407 0.55544,-4.9066 0.55548,-7.4989 -4e-5,-1.8515 0.0925,-5.0918 0.27774,-9.7209 0.18511,-4.6289 0.37027,-9.9985 0.55547,-16.1088 0.37028,-6.2953 0.7406,-13.1462 1.11096,-20.5527 0.55543,-7.4062 1.01833,-14.8126 1.38869,-22.219 0.55543,-9.6282 1.20349,-19.1639 1.94417,-28.6071 0.74059,-9.6281 1.11091,-19.1638 1.11096,-28.6071 l 0,-1.3887 c -5e-5,-2.592 -0.83327,-4.351 -2.49965,-5.277 -1.48132,-1.1108 -3.42549,-1.6663 -5.83251,-1.6665 -2.22195,2e-4 -4.72159,0.4631 -7.49894,1.3887 -2.59226,0.7409 -5.09191,1.6667 -7.49895,2.7774 -2.40709,0.926 -4.44384,1.9444 -6.11025,3.0551 -1.66645,0.926 -2.59224,1.6667 -2.77738,2.2219 -0.37034,0.926 -0.5555,4.7218 -0.55548,11.3873 -2e-5,6.4808 0.0926,14.5352 0.27774,24.1633 0.3703,9.4433 0.74062,19.7196 1.11095,30.829 0.3703,11.1096 0.74062,21.5711 1.11096,31.3844 0.55545,9.8136 1.01835,18.3309 1.38869,25.552 0.55546,7.0361 1.01835,11.3873 1.38869,13.0537 l 0.55548,1.9442 c 1.48125,0.1852 2.86994,0.3704 4.16608,0.5555 1.48124,0.1852 2.96252,0.4629 4.44382,0.8332 m 12.77597,-141.6467 0,0.5555 c -4e-5,9.6284 -0.37036,19.2567 -1.11095,28.8848 -0.74068,9.4432 -1.38873,18.8863 -1.94417,28.3293 -0.37036,7.4065 -0.83326,14.8129 -1.38869,22.2191 -0.37036,7.4065 -0.74068,14.2574 -1.11096,20.5527 -0.1852,6.1103 -0.37035,11.5725 -0.55547,16.3865 -0.1852,4.6291 -0.27778,7.8694 -0.27774,9.7209 -4e-5,3.5181 -0.27778,6.7584 -0.83322,9.7208 -1.66647,0.1853 -3.24032,0.1853 -4.72156,0 -1.4813,-0.3702 -3.05515,-0.7405 -4.72155,-1.1109 -0.37035,-2.9625 -0.83324,-8.1469 -1.3887,-15.5534 -0.37034,-7.5914 -0.83324,-16.1087 -1.38869,-25.5519 -0.37034,-9.6282 -0.74066,-19.6268 -1.11095,-29.9958 -0.37034,-10.3688 -0.64808,-19.9045 -0.83322,-28.6071 -0.18518,-8.8874 -0.37034,-16.2938 -0.55548,-22.2191 -2e-5,-5.9249 0.0926,-9.1652 0.27774,-9.7208 0.55546,-1.1108 1.85157,-1.944 3.88834,-2.4997 2.22188,-0.7404 4.53637,-1.2033 6.94347,-1.3887 2.40703,-0.3701 4.62894,-0.4627 6.66573,-0.2777 2.22186,2e-4 3.61055,0.1854 4.16607,0.5555"
         style="font-size:277.73861694px;fill:#444444;fill-opacity:1;font-family:PlaytimeWithHotToddies3D;-inkscape-font-specification:PlaytimeWithHotToddies3D"
         id="path3043"
         inkscape:connector-curvature="0" />
    </g>
    <path
       style="fill:#444444;fill-opacity:1;stroke:#000000;stroke-width:1.42594671;stroke-linecap:square;stroke-linejoin:miter;stroke-miterlimit:4;stroke-opacity:0;stroke-dasharray:none;stroke-dashoffset:0"
       d="m 407.46704,-1657.2517 c -3.77202,0.3519 -7.5619,0.7967 -11.31797,1.2367 -2.37265,0.8489 -3.86708,3.0277 -6.15175,4.0696 -4.21606,2.8076 -6.61415,7.4589 -9.85685,11.2336 -3.37292,4.6072 -4.16125,10.5521 -5.33675,16.0721 -0.91769,5.266 -2.05856,10.9666 0.43356,16.1216 1.86485,4.1102 4.17334,8.0408 6.06424,12.1397 1.3164,2.1457 3.38233,3.6983 4.86254,5.7091 1.60255,1.4045 3.22879,2.8657 4.83452,4.2148 0.23119,4.0622 1.07641,8.0789 2.22499,11.9955 -0.3649,0.5294 0.65296,1.8576 1.04427,2.6999 0.0232,1.8029 1.00663,1.562 2.29935,2.123 2.56704,2.4919 6.17454,3.4361 9.61065,3.0296 3.63684,0.1349 7.35825,-1.9698 8.53623,-5.3999 0.51019,-3.2709 0.25064,-6.691 1.30725,-9.8629 0.15015,-3.161 1.88804,-5.7169 4.02535,-7.8909 3.03224,-4.1507 7.65753,-6.8605 10.78696,-10.9361 2.43284,-3.7071 2.73286,-8.4408 4.15888,-12.601 1.35519,-5.3065 2.34855,-10.7454 1.84226,-16.3157 0.0242,-4.8886 0.31484,-10.155 -2.46963,-14.5406 -2.15852,-3.5528 -5.14208,-6.5872 -8.23943,-9.2851 -2.63357,-1.3606 -5.56031,-1.8967 -8.34504,-2.5557 -1.89388,-0.943 -4.14949,-0.8432 -6.1891,-1.1955 -1.37473,-0.022 -2.75194,-0.1046 -4.12451,-0.062 z m 0.43958,4.0911 c 2.99053,0.037 6.11167,0.05 8.96381,0.9997 2.43146,1.2157 5.77996,0.4913 7.58837,2.968 3.8966,3.7249 7.27948,8.5944 7.13574,14.0769 -0.0878,6.0913 0.67658,12.296 -0.98063,18.1677 -1.14833,4.6129 -2.22917,9.2981 -3.76371,13.7581 -2.5568,4.6887 -7.64777,7.0836 -10.78305,11.3307 -2.36583,2.6287 -4.97547,5.4213 -5.16376,9.1974 -0.71939,3.0411 -1.22093,6.19 -1.22706,9.3882 -0.0981,2.1864 -2.15879,3.6002 -3.90696,4.4106 -1.91641,-0.2658 -1.82743,-0.8131 -3.64137,-1.6591 -1.0726,-1.0068 -3.15354,-1.5854 -2.84693,-3.4301 -0.0606,-3.8011 -1.90127,-7.2981 -2.16608,-11.0592 -0.0581,-2.8265 -1.71344,-5.6069 -4.40648,-6.6881 -3.69523,-1.881 -6.70804,-5.1947 -8.07713,-9.0892 -2.70688,-5.4606 -6.71821,-11.0631 -5.63057,-17.3438 0.93115,-6.6545 1.88975,-13.4899 4.67929,-19.5801 2.25403,-3.5547 5.03502,-6.7731 7.61923,-10.0992 0.14378,1.0016 1.27253,-1.1746 1.92713,-1.5664 1.70319,-1.8188 3.95743,-3.1981 6.59413,-2.9062 2.72086,-0.2288 5.37747,-0.7316 8.08603,-0.8759 z"
       id="path3061"
       inkscape:connector-curvature="0" />
    <path
       style="fill:#444444;fill-opacity:1;stroke:#000000;stroke-width:1.79933631;stroke-linecap:square;stroke-linejoin:miter;stroke-miterlimit:4;stroke-opacity:0;stroke-dasharray:none;stroke-dashoffset:0"
       id="path3084"
       d="m 396.24362,-1586.6056 c 0.14718,0.2153 0.39983,0.3455 0.62202,0.4699 0.44451,0.253 0.91407,0.4493 1.38269,0.6478 0.51984,0.2145 1.04209,0.4224 1.56482,0.6291 0.50966,0.2064 1.01612,0.421 1.52344,0.6335 0.5153,0.2176 1.03101,0.4355 1.55805,0.6201 0.56139,0.2199 1.13715,0.3945 1.7097,0.5782 0.60395,0.1875 1.21249,0.3584 1.81519,0.5503 0.54726,0.1694 1.09715,0.3282 1.64523,0.4944 0.49328,0.1419 0.9884,0.2757 1.48231,0.415 0.45239,0.1341 0.91094,0.24 1.37171,0.3334 0.47963,0.094 0.96171,0.1681 1.445,0.2318 0.5021,0.05 1.00412,0.073 1.50656,0.077 1.55433,0.01 4.26821,0.01 -2.7028,0 0.22792,-0.01 0.11578,0 0.337,-0.013 0,0 4.02668,0.61 4.02668,0.61 l 0,0 c -0.22543,0.016 -0.11093,0.01 -0.34332,0.023 -1.75692,0 -3.51461,0.03 -5.27314,0 -0.5055,-0.018 -1.01193,-0.053 -1.51505,-0.1242 -0.48644,-0.073 -0.97195,-0.1548 -1.45374,-0.2604 -0.46141,-0.1048 -0.91923,-0.2259 -1.37412,-0.3598 -0.49301,-0.1398 -0.98833,-0.2706 -1.47795,-0.4237 -0.54565,-0.1665 -1.09389,-0.3233 -1.63734,-0.4979 -0.60475,-0.1831 -1.21025,-0.3637 -1.81302,-0.5541 -0.57789,-0.1841 -1.1533,-0.377 -1.72073,-0.5947 -0.52533,-0.2026 -1.04558,-0.419 -1.56449,-0.6386 -0.50479,-0.2142 -1.01254,-0.4206 -1.52063,-0.6259 -0.52294,-0.2108 -1.0477,-0.4166 -1.56604,-0.6394 -0.48216,-0.209 -0.95984,-0.4319 -1.41054,-0.707 -0.25155,-0.1687 -0.483,-0.3566 -0.67429,-0.5931 0,0 4.0568,-0.2831 4.0568,-0.2831 z"
       inkscape:connector-curvature="0" />
    <path
       style="fill:#444444;fill-opacity:1;stroke:#000000;stroke-width:1.79933631;stroke-linecap:square;stroke-linejoin:miter;stroke-miterlimit:4;stroke-opacity:0;stroke-dasharray:none;stroke-dashoffset:0"
       id="path3086"
       d="m 396.63419,-1582.2418 c 0.0772,0.2449 0.26844,0.4242 0.46572,0.5803 0.43609,0.2953 0.90294,0.5379 1.36921,0.7782 0.53448,0.2511 1.06243,0.5173 1.60099,0.759 0.52631,0.2218 1.04747,0.4556 1.56798,0.6914 0.54947,0.2265 1.10523,0.4348 1.67031,0.6139 0.61702,0.1933 1.2401,0.3601 1.8667,0.5132 0.6244,0.1494 1.2488,0.2975 1.87605,0.4322 0.55491,0.1102 1.10739,0.2326 1.66044,0.3534 0.50654,0.1113 1.01724,0.1966 1.52801,0.2789 0.47304,0.074 0.94716,0.1386 1.42187,0.1961 0.42417,0.053 0.84897,0.096 1.27389,0.1377 0.36461,0.033 0.73047,0.03 1.09541,0.038 0.28799,0.01 0.57566,0.01 0.86349,0.015 0.18431,0 0.36897,0.01 0.55329,0.01 0,0 -3.99056,0.6292 -3.99056,0.6292 l 0,0 c -0.18224,0 -0.36484,-0.01 -0.54714,-0.011 -0.28511,-0.01 -0.56994,-0.011 -0.85494,-0.018 -0.36456,-0.011 -0.72922,-0.023 -1.09277,-0.07 -0.42332,-0.045 -0.84636,-0.093 -1.26882,-0.1488 -0.47408,-0.063 -0.9477,-0.1321 -1.41986,-0.2128 -0.51119,-0.089 -1.02168,-0.183 -1.5284,-0.2999 -0.54933,-0.1222 -1.10062,-0.2327 -1.64998,-0.3548 -0.62612,-0.1411 -1.25041,-0.2915 -1.87417,-0.4445 -0.62993,-0.1623 -1.25645,-0.3395 -1.87604,-0.5426 -0.56894,-0.1962 -1.13304,-0.4099 -1.68388,-0.6566 -0.52028,-0.2363 -1.04725,-0.4562 -1.56677,-0.6944 -0.53662,-0.2546 -1.07321,-0.5098 -1.60268,-0.7799 -0.48734,-0.2597 -0.98534,-0.5182 -1.40656,-0.8828 -0.211,-0.216 -0.3847,-0.4496 -0.51841,-0.7195 0,0 4.06763,-0.1891 4.06763,-0.1891 z"
       inkscape:connector-curvature="0" />
    <path
       style="fill:#444444;fill-opacity:1;stroke:#000000;stroke-width:1.79933631;stroke-linecap:square;stroke-linejoin:miter;stroke-miterlimit:4;stroke-opacity:0;stroke-dasharray:none;stroke-dashoffset:0"
       id="path3090"
       d="m 398.0147,-1576.2077 c 0.21195,0.137 0.45661,0.21 0.69366,0.2851 0.47995,0.1489 0.96843,0.262 1.45193,0.3961 0.51044,0.1361 1.01835,0.2852 1.51803,0.4608 0.46762,0.1609 0.91379,0.3768 1.36666,0.5761 0.41472,0.1909 0.82414,0.3934 1.23252,0.5981 0.3865,0.1959 0.79214,0.3439 1.19956,0.4838 0.43446,0.134 0.87235,0.2539 1.3117,0.3681 0.47005,0.115 0.94343,0.2114 1.4187,0.2957 0.4453,0.075 0.89034,0.1497 1.33438,0.234 0.39429,0.073 0.78892,0.1455 1.18432,0.2109 0.31795,0.054 0.63686,0.1008 0.95559,0.1485 0.26239,0.038 0.52525,0.069 0.78816,0.1017 0.23073,0.038 0.46131,0.017 0.69222,0.014 -6.80221,-0.013 -4.88482,0.01 -3.43939,0 0.1333,0 0.2666,0 0.3999,0 0,0 4.04641,0.6341 4.04641,0.6341 l 0,0 c -0.13415,7e-4 -0.26836,0 -0.40255,0 -1.53044,0.011 -3.06003,0.039 -4.59237,0.01 -0.23392,0 -0.46573,-0.028 -0.6983,-0.065 -0.26194,-0.034 -0.52368,-0.072 -0.78485,-0.1131 -0.3163,-0.05 -0.63241,-0.101 -0.9478,-0.1577 -0.39221,-0.071 -0.78422,-0.1431 -1.17593,-0.2171 -0.44275,-0.08 -0.88738,-0.148 -1.32922,-0.2354 -0.47764,-0.094 -0.9537,-0.1994 -1.42508,-0.3262 -0.44438,-0.1214 -0.88974,-0.2427 -1.3235,-0.4027 -0.41044,-0.1558 -0.81518,-0.3267 -1.20559,-0.5315 -0.40556,-0.2009 -0.81333,-0.3973 -1.22682,-0.5804 -0.44411,-0.1994 -0.89244,-0.3888 -1.35505,-0.5372 -0.50045,-0.1584 -1.00378,-0.3057 -1.5112,-0.4364 -0.49466,-0.1278 -0.98946,-0.2591 -1.4733,-0.4287 -0.26623,-0.107 -0.53076,-0.2205 -0.75166,-0.4118 0,0 4.04916,-0.365 4.04916,-0.365 z"
       inkscape:connector-curvature="0" />
    <path
       style="fill:#444444;fill-opacity:1;stroke:#000000;stroke-width:1.79933631;stroke-linecap:square;stroke-linejoin:miter;stroke-miterlimit:4;stroke-opacity:0;stroke-dasharray:none;stroke-dashoffset:0"
       id="path3115"
       d="m 399.18658,-1591.2907 c 0.004,-0.1702 0.004,-0.3405 0.005,-0.5109 0.002,-0.2701 0.002,-0.5403 0.004,-0.8105 8.9e-4,-0.4039 0.004,-0.8079 0.005,-1.2118 -7.3e-4,-0.5128 0.008,-1.0256 -0.005,-1.5381 -0.0132,-0.5563 -0.0527,-1.1117 -0.0996,-1.666 -0.0477,-0.6529 -0.14533,-1.301 -0.26662,-1.9439 -0.12685,-0.6486 -0.31405,-1.2824 -0.48123,-1.9211 -0.14232,-0.6605 -0.32486,-1.3081 -0.55402,-1.9434 -0.24836,-0.6596 -0.55091,-1.2981 -0.85542,-1.9333 -0.3381,-0.6718 -0.65373,-1.3538 -0.96349,-2.0391 -0.30924,-0.7176 -0.63589,-1.4274 -0.94105,-2.1469 -0.29025,-0.6749 -0.58038,-1.3498 -0.83914,-2.0375 -0.27836,-0.7443 -0.52429,-1.4999 -0.77043,-2.2553 -0.24569,-0.7537 -0.45354,-1.5188 -0.67334,-2.2802 -0.23989,-0.7951 -0.37476,-1.6138 -0.50284,-2.4326 -0.1276,-0.7725 -0.20833,-1.5506 -0.27404,-2.3305 -0.0708,-0.7841 -0.0907,-1.5715 -0.11197,-2.3581 -0.0154,-0.7314 0.003,-1.4629 0.0649,-2.1917 0.0588,-0.5814 0.15793,-1.1577 0.30541,-1.723 0.10913,-0.439 0.28507,-0.8553 0.52608,-1.2372 0.238,-0.3748 0.59279,-0.6362 0.95282,-0.8834 0.34292,-0.2287 0.7065,-0.4229 1.07561,-0.6053 0.33039,-0.1617 0.67351,-0.2933 1.02391,-0.404 0.9414,-0.2433 1.96562,-0.2522 2.91791,-0.1017 0.28418,0.028 0.52528,0.1514 0.7523,0.3161 0.2442,0.2132 0.41946,0.4907 0.58657,0.7654 0.16306,0.2617 0.29061,0.5431 0.41428,0.8251 0.108,0.2584 0.20347,0.5221 0.2905,0.7883 0.0757,0.2301 0.14342,0.4626 0.20385,0.6971 0.0411,0.1943 0.099,0.3825 0.16863,0.5683 0.0551,0.1648 0.11692,0.3291 0.19988,0.4822 0.0717,0.135 0.15004,0.2645 0.25974,0.3718 0.10186,0.1013 0.22312,0.1795 0.34554,0.2531 0.10069,0.069 0.21904,0.077 0.33613,0.059 -0.64488,0 -1.28977,0 -1.93465,-0.01 0.14253,0 0.28238,-0.012 0.41939,-0.051 0.15377,-0.058 0.27458,-0.1615 0.38679,-0.278 0.16706,-0.189 0.28114,-0.4156 0.39688,-0.6377 0.14294,-0.2792 0.28732,-0.5576 0.42819,-0.8378 0.14401,-0.2929 0.28069,-0.5893 0.44149,-0.8736 0.15328,-0.2671 0.30806,-0.532 0.49873,-0.7744 0.2109,-0.2366 0.45787,-0.4372 0.71564,-0.6201 0.26846,-0.1815 0.56385,-0.3177 0.85715,-0.4534 0.2549,-0.1188 0.51693,-0.2202 0.78171,-0.3144 0.21884,-0.079 0.43999,-0.1508 0.66266,-0.218 0.84251,-0.1748 1.73395,-0.1539 2.58279,-0.044 0.19288,0.041 0.3419,0.1565 0.46898,0.3015 0.16166,0.1948 0.24691,0.4331 0.32613,0.6699 0.0931,0.2942 0.16222,0.5949 0.22844,0.8961 0.0603,0.284 0.11045,0.5698 0.16155,0.8556 0.0441,0.2514 0.0795,0.5039 0.11287,0.7569 0.0297,0.2346 0.0747,0.4681 0.13131,0.6977 0.0495,0.2205 0.12743,0.4321 0.20543,0.6436 0.0627,0.1688 0.14335,0.3329 0.24844,0.4794 0.10579,0.1319 0.21877,0.2966 0.38809,0.3406 -0.0997,0.062 0.5975,0.035 0.40999,0.034 -1.88613,-0.01 -2.48858,0.017 -1.71908,-0.011 0.34534,-0.022 0.68679,-0.089 1.02252,-0.1705 0.34002,-0.091 0.67183,-0.2092 0.99811,-0.3404 0.33242,-0.1251 0.63694,-0.3052 0.93645,-0.4934 0.30807,-0.2024 0.58252,-0.4515 0.85585,-0.6975 0.26573,-0.2487 0.51751,-0.5118 0.77057,-0.7733 0.21654,-0.2245 0.43435,-0.4477 0.65164,-0.6715 0.17834,-0.1904 0.36567,-0.3715 0.56154,-0.5438 0.15749,-0.129 0.3119,-0.2633 0.48992,-0.3632 0.71418,-0.3148 2.13699,-0.1038 2.51025,-0.1027 0.18981,0.018 0.36103,0.097 0.53582,0.1666 0.17024,0.084 0.32224,0.1965 0.47077,0.3134 0.15428,0.1365 0.2651,0.3115 0.37307,0.4847 0.1104,0.1886 0.1882,0.3927 0.26183,0.5978 0.0735,0.2154 0.13299,0.435 0.18311,0.6569 0.0679,0.236 0.0856,0.4651 0.0407,0.7056 -0.0823,0.352 -0.19259,0.6968 -0.31055,1.0382 -0.11737,0.3564 -0.27016,0.6983 -0.43401,1.0354 -0.1867,0.3697 -0.40573,0.7213 -0.63687,1.0645 -0.26786,0.3961 -0.53468,0.7928 -0.79807,1.1919 -0.275,0.4374 -0.55731,0.8699 -0.84544,1.2988 -0.27829,0.4221 -0.57298,0.8326 -0.87397,1.2386 -0.30016,0.4206 -0.61345,0.8311 -0.92802,1.241 -0.37632,0.4703 -0.74881,0.9438 -1.12873,1.4113 -0.41154,0.5015 -0.83098,0.9965 -1.26355,1.48 -0.41015,0.4449 -0.79495,0.9108 -1.1647,1.3895 -0.34649,0.4488 -0.66117,0.9195 -0.94319,1.4111 -0.29782,0.5111 -0.52963,1.0554 -0.76205,1.5982 -0.23421,0.511 -0.42573,1.039 -0.6007,1.5727 -0.19065,0.5703 -0.31576,1.1586 -0.43011,1.748 -0.11458,0.6186 -0.20911,1.2407 -0.29834,1.8635 -0.0813,0.5625 -0.14748,1.1269 -0.20859,1.6918 -0.063,0.561 -0.10246,1.1243 -0.15454,1.6864 -0.0564,0.5771 -0.11134,1.1545 -0.16188,1.7321 -0.034,0.5093 -0.0957,1.0158 -0.1541,1.5227 -0.0504,0.4616 -0.12228,0.9205 -0.18597,1.3806 -0.0601,0.426 -0.10877,0.8536 -0.15273,1.2817 -0.0445,0.4371 -0.0766,0.8753 -0.10753,1.3135 -0.0292,0.4034 -0.0527,0.8073 -0.0743,1.2112 -0.02,0.365 -0.0365,0.7301 -0.0515,1.0954 -0.0134,0.3125 -0.0247,0.6253 -0.0353,0.9379 -0.009,0.2646 -0.0173,0.5293 -0.0246,0.794 -9e-4,0.039 -0.002,0.077 -0.003,0.1165 0,0 -2.03045,-0.01 -2.03045,-0.01 l 0,0 c 9e-4,-0.039 0.003,-0.077 0.004,-0.1165 0.009,-0.2651 0.0173,-0.5303 0.0273,-0.7953 0.0125,-0.3132 0.0238,-0.6263 0.0388,-0.9394 0.0171,-0.366 0.0329,-0.732 0.0542,-1.0977 0.0233,-0.405 0.0459,-0.8101 0.0766,-1.2146 0.0327,-0.44 0.0648,-0.8802 0.10794,-1.3195 0.0439,-0.4307 0.0922,-0.8607 0.15346,-1.2893 0.0653,-0.4582 0.13685,-0.9157 0.18847,-1.3756 0.0587,-0.5052 0.12366,-1.0096 0.15847,-1.5171 0.0514,-0.578 0.10888,-1.1553 0.16451,-1.7327 0.0505,-0.5634 0.0871,-1.1279 0.15198,-1.6899 0.0619,-0.5673 0.12793,-1.1342 0.21144,-1.6988 0.0907,-0.6259 0.18866,-1.2507 0.3013,-1.873 0.11433,-0.5972 0.23379,-1.1949 0.42552,-1.7731 0.17555,-0.5397 0.36318,-1.0759 0.60306,-1.591 0.2367,-0.548 0.46463,-1.1012 0.76211,-1.6203 0.28169,-0.5014 0.5941,-0.9832 0.94551,-1.4391 0.37145,-0.4835 0.75415,-0.9572 1.16894,-1.4046 0.4336,-0.4796 0.85275,-0.9719 1.26494,-1.47 0.37872,-0.4642 0.74279,-0.94 1.11873,-1.4064 0.31439,-0.4086 0.63072,-0.8155 0.92733,-1.2374 0.29972,-0.4039 0.59712,-0.8093 0.87429,-1.2292 0.28764,-0.4285 0.57421,-0.8574 0.84407,-1.2973 0.26319,-0.3992 0.52737,-0.7979 0.79465,-1.1944 0.22813,-0.335 0.44491,-0.6776 0.6321,-1.0374 0.16496,-0.3279 0.31435,-0.6627 0.43119,-1.0111 0.11886,-0.3303 0.22569,-0.6661 0.30534,-1.0082 0.0424,-0.2114 0.0132,-0.4136 -0.0438,-0.6208 -0.051,-0.2134 -0.10896,-0.4255 -0.18323,-0.6322 -0.071,-0.1914 -0.14944,-0.381 -0.26103,-0.5529 -0.10248,-0.1549 -0.21335,-0.3057 -0.36844,-0.4125 -0.14421,-0.1033 -0.29541,-0.1989 -0.46446,-0.2563 -0.17112,-0.062 -0.34537,-0.1051 -0.52854,-0.1064 3.46495,-0.01 2.26485,-0.077 1.522,0.03 -0.18783,0.063 -0.33714,0.1814 -0.48865,0.3073 -0.20076,0.1598 -0.3867,0.3374 -0.56349,0.5232 -0.21843,0.2231 -0.43614,0.4471 -0.654,0.671 -0.25668,0.2631 -0.51211,0.5276 -0.77434,0.7853 -0.27652,0.2548 -0.55724,0.507 -0.85778,0.7332 -0.30373,0.1916 -0.60184,0.3967 -0.93929,0.5258 -0.3251,0.1454 -0.66163,0.2644 -1.00206,0.3685 -0.33498,0.098 -0.67879,0.1638 -1.02441,0.2116 -0.89302,0.072 -1.88159,0.2587 -2.71597,-0.1111 -0.15445,-0.1257 -0.29055,-0.2706 -0.3965,-0.4401 -0.10068,-0.1667 -0.18725,-0.3418 -0.2493,-0.5267 -0.0782,-0.219 -0.15337,-0.4392 -0.20437,-0.6664 -0.0555,-0.2372 -0.10199,-0.4773 -0.13122,-0.7192 -0.0325,-0.25 -0.0684,-0.4996 -0.11162,-0.748 -0.049,-0.2831 -0.0982,-0.5662 -0.15891,-0.8471 -0.0645,-0.2936 -0.13331,-0.5867 -0.22907,-0.8719 -0.0761,-0.2093 -0.15944,-0.4203 -0.32677,-0.5749 -0.13249,-0.1039 -0.28316,-0.162 -0.45334,-0.1636 -0.81826,-0.033 2.99186,-0.054 1.44248,0.013 -0.22726,0.041 -0.44434,0.1269 -0.66364,0.198 -0.26398,0.09 -0.52818,0.1804 -0.78214,0.2969 -0.29069,0.1257 -0.5802,0.2588 -0.85398,0.4182 -0.25462,0.1645 -0.4911,0.3521 -0.7092,0.563 -0.19776,0.226 -0.35138,0.4805 -0.49894,0.7413 -0.16705,0.2763 -0.2998,0.5706 -0.44047,0.8609 -0.14152,0.2807 -0.28421,0.5605 -0.42729,0.8402 -0.12045,0.2345 -0.23399,0.4743 -0.39245,0.6865 -0.11163,0.1406 -0.2345,0.2743 -0.39274,0.3632 -0.13127,0.084 -0.27512,0.1263 -0.43085,0.1339 -0.79825,-6e-4 -1.73637,0.3034 -2.43812,-0.1656 -0.12794,-0.089 -0.24981,-0.1882 -0.35001,-0.3085 -0.10221,-0.1319 -0.18799,-0.2743 -0.26132,-0.4244 -0.0764,-0.1645 -0.14431,-0.3329 -0.20075,-0.5054 -0.0681,-0.1923 -0.12073,-0.3884 -0.16612,-0.5874 -0.061,-0.2297 -0.12641,-0.4584 -0.20136,-0.6841 -0.0871,-0.2595 -0.17871,-0.5178 -0.28798,-0.7691 -0.12114,-0.2734 -0.25011,-0.5438 -0.41132,-0.7963 -0.16108,-0.2517 -0.32758,-0.5101 -0.58228,-0.677 -0.22945,-0.1318 -0.47462,-0.2058 -0.74039,-0.2195 -0.74689,-0.026 -0.28104,-0.01 1.72346,-0.012 0.0503,-10e-5 -0.10073,5e-4 -0.15095,0 -0.0396,0 -0.27978,0.029 -0.31751,0.036 -0.0536,0.01 -0.10619,0.022 -0.15928,0.033 -0.3492,0.1024 -0.69421,0.2162 -1.02346,0.3731 -0.36858,0.1729 -0.73084,0.3593 -1.07542,0.5769 -0.34838,0.2258 -0.70463,0.4575 -0.9453,0.8041 -0.24925,0.3533 -0.41774,0.7539 -0.5291,1.1713 -0.15228,0.5527 -0.25339,1.1176 -0.31528,1.6876 -0.0647,0.7212 -0.0855,1.4451 -0.0713,2.1691 0.0201,0.783 0.0412,1.5663 0.11286,2.3467 0.0646,0.7751 0.14653,1.5483 0.27116,2.3164 0.12574,0.8109 0.26129,1.6214 0.5036,2.4075 0.21809,0.7595 0.42797,1.5218 0.67266,2.2733 0.24459,0.7529 0.49228,1.5051 0.77261,2.2456 0.2616,0.6842 0.55383,1.3557 0.83957,2.0299 0.30389,0.7179 0.62689,1.4273 0.93802,2.142 0.31142,0.6839 0.63255,1.3628 0.96847,2.035 0.30518,0.6421 0.61025,1.2864 0.85733,1.9535 0.22812,0.6418 0.40951,1.2956 0.55637,1.9609 0.16839,0.6431 0.35601,1.2818 0.4814,1.9354 0.12087,0.6497 0.21774,1.3043 0.27023,1.9634 0.0501,0.5585 0.0913,1.118 0.10509,1.6788 0.0119,0.5142 0.004,1.0286 0.008,1.5429 7.9e-4,0.404 0.004,0.8079 0.005,1.2118 9e-4,0.2702 0.002,0.5403 0.004,0.8105 7.1e-4,0.1703 3.1e-4,0.3407 0.005,0.5109 0,0 -2.04027,0 -2.04027,0 z"
       inkscape:connector-curvature="0" />
    <path
       style="font-size:medium;font-style:normal;font-variant:normal;font-weight:normal;font-stretch:normal;text-indent:0;text-align:start;text-decoration:none;line-height:normal;letter-spacing:normal;word-spacing:normal;text-transform:none;direction:ltr;block-progression:tb;writing-mode:lr-tb;text-anchor:start;baseline-shift:baseline;color:#000000;fill:#444444;fill-opacity:1;fill-rule:nonzero;stroke:none;stroke-width:10;marker:none;visibility:visible;display:inline;overflow:visible;enable-background:accumulate;font-family:Sans;-inkscape-font-specification:Sans"
       d="m 397.28086,-1520.8509 c -0.73324,7.5989 0.36563,15.2793 -2.06233,22.5458 -1.00468,7.0877 -5.0102,15.9177 -4.27857,24.3347 0.32745,13.6868 -0.73116,27.8307 0.40015,41.2779 3.58538,8.594 4.25369,20.1894 12.98962,24.706 8.04442,4.2271 17.84878,1.0249 26.56406,2.0924 14.10959,0.4451 28.22237,-0.7665 41.98539,-3.9825 19.80683,-7.8489 40.46566,-13.9836 61.5926,-15.655 9.68873,-1.0273 19.20096,0.6969 28.1958,4.6519 19.39432,6.4226 38.9372,14.6489 59.56133,12.8016 16.2188,-0.281 32.13985,-4.9148 48.05589,-7.538 11.33777,-1.9517 22.49292,-6.8255 33.88338,-9.6174 10.77058,-1.3362 21.44983,0.5355 31.7045,3.9488 8.38565,4.194 15.16992,11.9333 24.34783,14.2769 19.38956,4.8168 39.64456,6.1645 59.46467,5.096 19.98054,-1.8881 39.44829,-8.1855 59.62731,-8.4711 11.82363,-1.2518 23.33707,-4.3892 35.2973,-4.9269 28.63231,-2.4808 57.41641,-1.4266 86.10331,-1.2834 12.7878,0.8035 25.3526,3.1308 38.0257,4.6698 18.3969,5.9667 38.1075,3.778 56.7492,0.089 16.5242,-4.2718 32.1454,-11.8656 49.1423,-13.8907 13.2172,-1.5322 26.3289,-5.0831 39.7534,-4.2 15.4584,-0.072 31.1061,-0.8538 46.1717,3.1389 31.4141,6.0468 43.2941,15.6533 75.7522,10.5304 55.1478,-21.497 -6.1136,4.5765 -29.6422,-5.6364 -15.7403,-4.4902 -29.762,-10.3782 -45.4329,-11.9481 -20.1745,-4.8342 -41.1135,-2.4528 -61.6544,-2.7001 -21.6109,3.1155 -43.6429,5.5466 -64.1171,14.2769 -16.3216,5.3626 -33.718,8.3548 -50.7272,6.6489 -9.1804,-1.9216 -18.0119,-4.3978 -27.4259,-4.7926 -29.42145,-5.3903 -59.51235,-2.6247 -89.23416,-3.1199 -19.31283,0.3399 -38.38852,2.2388 -57.25298,6.0224 -17.37953,1.002 -34.5153,3.5914 -51.5583,7.3579 -21.11784,3.672 -42.98478,1.2919 -63.93229,-2.8689 -7.23558,-2.1831 -13.33938,-5.834 -18.99192,-11.1042 -13.54227,-8.0583 -29.7785,-9.1122 -45.00193,-7.8303 -12.96807,3.3113 -25.52364,8.5821 -38.67693,10.6838 -20.93263,3.4129 -42.46704,10.1265 -63.54702,4.1668 -16.71148,-3.5251 -32.44401,-11.3053 -48.91113,-15.0868 -16.01239,-1.338 -32.34784,0.861 -48.12157,5.0769 -13.76139,2.6758 -26.32608,9.487 -39.96312,12.2953 -13.28334,2.1007 -26.74682,2.5628 -40.24161,2.1023 -6.2547,0.3239 -14.15363,0.8186 -17.63756,-6.109 -1.88315,-7.8131 -6.49722,-14.9781 -5.44825,-23.3559 0.67477,-14.0857 -1.42974,-28.5653 1.16968,-42.4255 2.00047,-6.8455 3.72282,-13.9119 4.77107,-20.9595 -0.71343,-13.9951 3.42573,-35.776 2.38333,-49.9253 -0.0281,-5.6572 6.49499,-17.2178 -1.80728,-12.8427 -2.13628,4.1471 -5.70064,-7.3261 -7.41944,-1.3487 1.6274,12.4881 1.83594,34.3929 -0.60563,48.8276 z"
       id="path4020"
       inkscape:connector-curvature="0"
       sodipodi:nodetypes="cccccccccccccccccccccccccccccccccccccccccccccccccc" />
    <path
       style="font-size:medium;font-style:normal;font-variant:normal;font-weight:normal;font-stretch:normal;text-indent:0;text-align:start;text-decoration:none;line-height:normal;letter-spacing:normal;word-spacing:normal;text-transform:none;direction:ltr;block-progression:tb;writing-mode:lr-tb;text-anchor:start;baseline-shift:baseline;color:#000000;fill:#444444;fill-opacity:1;fill-rule:nonzero;stroke:none;stroke-width:10;marker:none;visibility:visible;display:inline;overflow:visible;enable-background:accumulate;font-family:Sans;-inkscape-font-specification:Sans"
       d="m 326.02233,-1640.2098 c -3.63193,0.1561 -4.04594,0.6584 -0.21875,1.75 12.85758,3.9447 26.65401,6.8518 39.5,9.125 -0.0702,-4.3095 -6.58101,-2.4923 -9.2638,-3.8762 -10.02742,-2.1928 -20.00497,-4.9538 -30.01745,-6.9988 z"
       id="path4028"
       inkscape:connector-curvature="0" />
    <path
       style="font-size:medium;font-style:normal;font-variant:normal;font-weight:normal;font-stretch:normal;text-indent:0;text-align:start;text-decoration:none;line-height:normal;letter-spacing:normal;word-spacing:normal;text-transform:none;direction:ltr;block-progression:tb;writing-mode:lr-tb;text-anchor:start;baseline-shift:baseline;color:#000000;fill:#444444;fill-opacity:1;fill-rule:nonzero;stroke:none;stroke-width:10;marker:none;visibility:visible;display:inline;overflow:visible;enable-background:accumulate;font-family:Sans;-inkscape-font-specification:Sans"
       d="m 420.9509,-1701.7411 c -4.1563,12.0213 -7.58487,24.5385 -7.90625,37.2813 4.64619,0.7293 2.41288,-5.4663 3.25,-8.0313 1.17838,-9.9373 4.25628,-19.49 7.4375,-28.9687 -0.90989,-0.088 -1.86106,-0.3842 -2.78125,-0.2813 z"
       id="path4032"
       inkscape:connector-curvature="0" />
    <path
       style="font-size:medium;font-style:normal;font-variant:normal;font-weight:normal;font-stretch:normal;text-indent:0;text-align:start;text-decoration:none;line-height:normal;letter-spacing:normal;word-spacing:normal;text-transform:none;direction:ltr;block-progression:tb;writing-mode:lr-tb;text-anchor:start;baseline-shift:baseline;color:#000000;fill:#444444;fill-opacity:1;fill-rule:nonzero;stroke:none;stroke-width:10;marker:none;visibility:visible;display:inline;overflow:visible;enable-background:accumulate;font-family:Sans;-inkscape-font-specification:Sans"
       d="m 475.58929,-1671.9955 c -12.07999,5.428 -25.67162,8.7102 -35.71875,17.8437 5.24605,1.58 7.85166,-4.259 12.40625,-5.5313 8.07955,-4.4187 17.97719,-6.4774 25.40625,-11.2187 0.10195,-2.8373 0.1362,-1.9575 -2.09375,-1.0937 z"
       id="path4034"
       inkscape:connector-curvature="0" />
    <path
       style="font-size:medium;font-style:normal;font-variant:normal;font-weight:normal;font-stretch:normal;text-indent:0;text-align:start;text-decoration:none;line-height:normal;letter-spacing:normal;word-spacing:normal;text-transform:none;direction:ltr;block-progression:tb;writing-mode:lr-tb;text-anchor:start;baseline-shift:baseline;color:#000000;fill:#444444;fill-opacity:1;fill-rule:nonzero;stroke:none;stroke-width:10;marker:none;visibility:visible;display:inline;overflow:visible;enable-background:accumulate;font-family:Sans;-inkscape-font-specification:Sans"
       d="m 480.12947,-1636.3169 c -12.46057,0.8259 -24.15674,7.0669 -35.28125,11.5312 -0.9701,3.9531 3.3859,0.9013 5.0006,0.3099 10.40784,-4.2591 21.43122,-9.2505 32.3744,-10.0911 0.89072,-2.5112 -0.23495,-1.6832 -2.09375,-1.75 z"
       id="path4036"
       inkscape:connector-curvature="0" />
    <path
       inkscape:connector-curvature="0"
       id="path4078"
       d="m 352.83185,-1684.004 c 5.89196,11.0106 16.40163,19.0912 25.05699,27.384 4.0013,-0.7468 -0.57551,-3.4562 -1.78028,-4.6833 -8.17282,-7.7245 -17.26664,-15.7077 -22.54611,-25.3299 -2.65503,0.2244 -1.43644,0.9083 -0.7306,2.6292 z"
       style="font-size:medium;font-style:normal;font-variant:normal;font-weight:normal;font-stretch:normal;text-indent:0;text-align:start;text-decoration:none;line-height:normal;letter-spacing:normal;word-spacing:normal;text-transform:none;direction:ltr;block-progression:tb;writing-mode:lr-tb;text-anchor:start;baseline-shift:baseline;color:#000000;fill:#444444;fill-opacity:1;fill-rule:nonzero;stroke:none;stroke-width:10;marker:none;visibility:visible;display:inline;overflow:visible;enable-background:accumulate;font-family:Sans;-inkscape-font-specification:Sans" />
  </g>
</svg>
