<?xml version="1.0" encoding="UTF-8" standalone="no"?>
<!-- Created with Inkscape (http://www.inkscape.org/) -->

<svg
   xmlns:dc="http://purl.org/dc/elements/1.1/"
   xmlns:cc="http://creativecommons.org/ns#"
   xmlns:rdf="http://www.w3.org/1999/02/22-rdf-syntax-ns#"
   xmlns:svg="http://www.w3.org/2000/svg"
   xmlns="http://www.w3.org/2000/svg"
   xmlns:sodipodi="http://sodipodi.sourceforge.net/DTD/sodipodi-0.dtd"
   xmlns:inkscape="http://www.inkscape.org/namespaces/inkscape"
   id="svg4288"
   version="1.1"
   inkscape:version="0.48.3.1 r9886"
   width="512"
   height="512"
   sodipodi:docname="paper-clip.png">
  <metadata
     id="metadata4294">
    <rdf:RDF>
      <cc:Work
         rdf:about="">
        <dc:format>image/svg+xml</dc:format>
        <dc:type
           rdf:resource="http://purl.org/dc/dcmitype/StillImage" />
        <dc:title></dc:title>
      </cc:Work>
    </rdf:RDF>
  </metadata>
  <defs
     id="defs4292" />
  <sodipodi:namedview
     pagecolor="#ffffff"
     bordercolor="#666666"
     borderopacity="1"
     objecttolerance="10"
     gridtolerance="10"
     guidetolerance="10"
     inkscape:pageopacity="0"
     inkscape:pageshadow="2"
     inkscape:window-width="1316"
     inkscape:window-height="744"
     id="namedview4290"
     showgrid="false"
     inkscape:zoom="0.65186406"
     inkscape:cx="256"
     inkscape:cy="189.19167"
     inkscape:window-x="50"
     inkscape:window-y="24"
     inkscape:window-maximized="1"
     inkscape:current-layer="svg4288" />
  <path
     style="fill:#000000"
     d="m 248.83305,159.80933 c -19.12594,-17.50438 -51.94661,-17.20653 -70.26146,1.43867 -9.39831,8.56241 -16.49462,20.24012 -16.73784,33.23004 -0.89697,29.49585 -0.56966,59.17867 -0.74512,88.79254 0.0525,30.72345 -0.0902,61.39876 0.75946,92.105 2.56843,18.73732 19.34561,35.78772 38.98506,35.43758 17.88707,0.40748 33.45867,-14.17191 37.7069,-30.94403 2.38685,-8.90559 0.82832,-18.03253 1.46814,-27.15654 0.44433,-37.92187 0.24311,-76.01795 -0.2751,-113.85766 -0.81508,-15.35894 -17.67491,-26.93408 -32.2943,-22.46915 -11.89438,3.61785 -20.17192,16.03234 -18.80813,28.46676 0.0634,28.45262 -0.93341,56.93474 0.43277,85.28265 1.46762,1.37811 4.75515,1.0184 6.99457,1.00591 1.59813,-0.11317 3.32766,-0.51981 2.74437,-2.62131 0.81423,-12.76981 0.11485,-25.76998 0.3979,-38.55368 -8.3e-4,-17.74784 -0.71949,-35.58105 1.0685,-53.21657 2.46665,-9.39333 15.38403,-13.69497 22.86686,-7.26358 6.03567,4.69169 6.98267,12.96473 6.2601,20.05691 -0.0381,41.33144 0.68243,82.68331 -0.54047,123.9867 -1.88223,14.47831 -15.24003,27.77843 -30.27079,26.55129 -15.62039,-1.31992 -27.27036,-17.1881 -26.34359,-32.39894 -0.70619,-48.49996 -0.25199,-97.04666 -0.16679,-145.55606 0.37152,-10.15984 -0.27489,-20.42566 0.91589,-30.50854 3.62522,-20.77088 25.11158,-35.98678 45.71263,-34.00695 19.39258,1.37065 36.31193,18.06094 37.90868,37.51099 0.58503,11.36861 1.40822,36.6533 1.60402,48.08434 0.5505,33.27503 -0.27326,25.87904 0.0969,60.13615 3.93926,0.44795 7.50635,-0.10071 8.90112,0.33921 1.33263,-44.88013 0.92434,-70.6792 -0.14532,-110.47795 -1.29689,-13.13375 -8.52531,-24.73707 -18.235,-33.39378 z"
     id="path4298"
     inkscape:connector-curvature="0"
     sodipodi:nodetypes="cccccccccccccccccccccccccccccc" />
</svg>
